<?xml version="1.0" encoding="utf-8" standalone="no"?>
<!DOCTYPE svg PUBLIC "-//W3C//DTD SVG 1.1//EN"
  "http://www.w3.org/Graphics/SVG/1.1/DTD/svg11.dtd">
<svg xmlns:xlink="http://www.w3.org/1999/xlink" width="736.499219pt" height="616.189062pt" viewBox="0 0 736.499219 616.189062" xmlns="http://www.w3.org/2000/svg" version="1.1">
 <metadata>
  <rdf:RDF xmlns:dc="http://purl.org/dc/elements/1.1/" xmlns:cc="http://creativecommons.org/ns#" xmlns:rdf="http://www.w3.org/1999/02/22-rdf-syntax-ns#">
   <cc:Work>
    <dc:type rdf:resource="http://purl.org/dc/dcmitype/StillImage"/>
    <dc:date>2025-12-17T13:52:56.267599</dc:date>
    <dc:format>image/svg+xml</dc:format>
    <dc:creator>
     <cc:Agent>
      <dc:title>Matplotlib v3.10.7, https://matplotlib.org/</dc:title>
     </cc:Agent>
    </dc:creator>
   </cc:Work>
  </rdf:RDF>
 </metadata>
 <defs>
  <style type="text/css">*{stroke-linejoin: round; stroke-linecap: butt}</style>
 </defs>
 <g id="figure_1">
  <g id="patch_1">
   <path d="M 0 616.189062 
L 736.499219 616.189062 
L 736.499219 0 
L 0 0 
z
" style="fill: #ffffff"/>
  </g>
  <g id="axes_1">
   <g id="patch_2">
    <path d="M 59.699219 248.600312 
L 729.299219 248.600312 
L 729.299219 37.400312 
L 59.699219 37.400312 
z
" style="fill: #ffffff"/>
   </g>
   <g id="patch_3">
    <path d="M 215.084865 248.600312 
L 317.607353 248.600312 
L 317.607353 37.400312 
L 215.084865 37.400312 
z
" clip-path="url(#p01bae715f6)" style="fill: #ffd700; opacity: 0.1; stroke: #ffd700; stroke-linejoin: miter"/>
   </g>
   <g id="matplotlib.axis_1">
    <g id="xtick_1"/>
    <g id="xtick_2"/>
    <g id="xtick_3"/>
    <g id="xtick_4"/>
    <g id="xtick_5"/>
   </g>
   <g id="matplotlib.axis_2">
    <g id="ytick_1">
     <g id="line2d_1">
      <path d="M 59.699219 248.600312 
L 729.299219 248.600312 
" clip-path="url(#p01bae715f6)" style="fill: none; stroke-dasharray: 2.96,1.28; stroke-dashoffset: 0; stroke: #cccccc; stroke-opacity: 0.3; stroke-width: 0.8"/>
     </g>
     <g id="text_1">
      <!-- 0 -->
      <g style="fill: #262626" transform="translate(46.582188 252.537109) scale(0.11 -0.11)">
       <defs>
        <path id="ArialMT-30" d="M 266 2259 
Q 266 3072 433 3567 
Q 600 4063 929 4331 
Q 1259 4600 1759 4600 
Q 2128 4600 2406 4451 
Q 2684 4303 2865 4023 
Q 3047 3744 3150 3342 
Q 3253 2941 3253 2259 
Q 3253 1453 3087 958 
Q 2922 463 2592 192 
Q 2263 -78 1759 -78 
Q 1097 -78 719 397 
Q 266 969 266 2259 
z
M 844 2259 
Q 844 1131 1108 757 
Q 1372 384 1759 384 
Q 2147 384 2411 759 
Q 2675 1134 2675 2259 
Q 2675 3391 2411 3762 
Q 2147 4134 1753 4134 
Q 1366 4134 1134 3806 
Q 844 3388 844 2259 
z
" transform="scale(0.015625)"/>
       </defs>
       <use xlink:href="#ArialMT-30"/>
      </g>
     </g>
    </g>
    <g id="ytick_2">
     <g id="line2d_2">
      <path d="M 59.699219 204.370442 
L 729.299219 204.370442 
" clip-path="url(#p01bae715f6)" style="fill: none; stroke-dasharray: 2.96,1.28; stroke-dashoffset: 0; stroke: #cccccc; stroke-opacity: 0.3; stroke-width: 0.8"/>
     </g>
     <g id="text_2">
      <!-- 10000 -->
      <g style="fill: #262626" transform="translate(22.114062 208.307238) scale(0.11 -0.11)">
       <defs>
        <path id="ArialMT-31" d="M 2384 0 
L 1822 0 
L 1822 3584 
Q 1619 3391 1289 3197 
Q 959 3003 697 2906 
L 697 3450 
Q 1169 3672 1522 3987 
Q 1875 4303 2022 4600 
L 2384 4600 
L 2384 0 
z
" transform="scale(0.015625)"/>
       </defs>
       <use xlink:href="#ArialMT-31"/>
       <use xlink:href="#ArialMT-30" transform="translate(55.615234 0)"/>
       <use xlink:href="#ArialMT-30" transform="translate(111.230469 0)"/>
       <use xlink:href="#ArialMT-30" transform="translate(166.845703 0)"/>
       <use xlink:href="#ArialMT-30" transform="translate(222.460938 0)"/>
      </g>
     </g>
    </g>
    <g id="ytick_3">
     <g id="line2d_3">
      <path d="M 59.699219 160.140571 
L 729.299219 160.140571 
" clip-path="url(#p01bae715f6)" style="fill: none; stroke-dasharray: 2.96,1.28; stroke-dashoffset: 0; stroke: #cccccc; stroke-opacity: 0.3; stroke-width: 0.8"/>
     </g>
     <g id="text_3">
      <!-- 20000 -->
      <g style="fill: #262626" transform="translate(22.114062 164.077368) scale(0.11 -0.11)">
       <defs>
        <path id="ArialMT-32" d="M 3222 541 
L 3222 0 
L 194 0 
Q 188 203 259 391 
Q 375 700 629 1000 
Q 884 1300 1366 1694 
Q 2113 2306 2375 2664 
Q 2638 3022 2638 3341 
Q 2638 3675 2398 3904 
Q 2159 4134 1775 4134 
Q 1369 4134 1125 3890 
Q 881 3647 878 3216 
L 300 3275 
Q 359 3922 746 4261 
Q 1134 4600 1788 4600 
Q 2447 4600 2831 4234 
Q 3216 3869 3216 3328 
Q 3216 3053 3103 2787 
Q 2991 2522 2730 2228 
Q 2469 1934 1863 1422 
Q 1356 997 1212 845 
Q 1069 694 975 541 
L 3222 541 
z
" transform="scale(0.015625)"/>
       </defs>
       <use xlink:href="#ArialMT-32"/>
       <use xlink:href="#ArialMT-30" transform="translate(55.615234 0)"/>
       <use xlink:href="#ArialMT-30" transform="translate(111.230469 0)"/>
       <use xlink:href="#ArialMT-30" transform="translate(166.845703 0)"/>
       <use xlink:href="#ArialMT-30" transform="translate(222.460938 0)"/>
      </g>
     </g>
    </g>
    <g id="ytick_4">
     <g id="line2d_4">
      <path d="M 59.699219 115.9107 
L 729.299219 115.9107 
" clip-path="url(#p01bae715f6)" style="fill: none; stroke-dasharray: 2.96,1.28; stroke-dashoffset: 0; stroke: #cccccc; stroke-opacity: 0.3; stroke-width: 0.8"/>
     </g>
     <g id="text_4">
      <!-- 30000 -->
      <g style="fill: #262626" transform="translate(22.114062 119.847497) scale(0.11 -0.11)">
       <defs>
        <path id="ArialMT-33" d="M 269 1209 
L 831 1284 
Q 928 806 1161 595 
Q 1394 384 1728 384 
Q 2125 384 2398 659 
Q 2672 934 2672 1341 
Q 2672 1728 2419 1979 
Q 2166 2231 1775 2231 
Q 1616 2231 1378 2169 
L 1441 2663 
Q 1497 2656 1531 2656 
Q 1891 2656 2178 2843 
Q 2466 3031 2466 3422 
Q 2466 3731 2256 3934 
Q 2047 4138 1716 4138 
Q 1388 4138 1169 3931 
Q 950 3725 888 3313 
L 325 3413 
Q 428 3978 793 4289 
Q 1159 4600 1703 4600 
Q 2078 4600 2393 4439 
Q 2709 4278 2876 4000 
Q 3044 3722 3044 3409 
Q 3044 3113 2884 2869 
Q 2725 2625 2413 2481 
Q 2819 2388 3044 2092 
Q 3269 1797 3269 1353 
Q 3269 753 2831 336 
Q 2394 -81 1725 -81 
Q 1122 -81 723 278 
Q 325 638 269 1209 
z
" transform="scale(0.015625)"/>
       </defs>
       <use xlink:href="#ArialMT-33"/>
       <use xlink:href="#ArialMT-30" transform="translate(55.615234 0)"/>
       <use xlink:href="#ArialMT-30" transform="translate(111.230469 0)"/>
       <use xlink:href="#ArialMT-30" transform="translate(166.845703 0)"/>
       <use xlink:href="#ArialMT-30" transform="translate(222.460938 0)"/>
      </g>
     </g>
    </g>
    <g id="ytick_5">
     <g id="line2d_5">
      <path d="M 59.699219 71.680829 
L 729.299219 71.680829 
" clip-path="url(#p01bae715f6)" style="fill: none; stroke-dasharray: 2.96,1.28; stroke-dashoffset: 0; stroke: #cccccc; stroke-opacity: 0.3; stroke-width: 0.8"/>
     </g>
     <g id="text_5">
      <!-- 40000 -->
      <g style="fill: #262626" transform="translate(22.114062 75.617626) scale(0.11 -0.11)">
       <defs>
        <path id="ArialMT-34" d="M 2069 0 
L 2069 1097 
L 81 1097 
L 81 1613 
L 2172 4581 
L 2631 4581 
L 2631 1613 
L 3250 1613 
L 3250 1097 
L 2631 1097 
L 2631 0 
L 2069 0 
z
M 2069 1613 
L 2069 3678 
L 634 1613 
L 2069 1613 
z
" transform="scale(0.015625)"/>
       </defs>
       <use xlink:href="#ArialMT-34"/>
       <use xlink:href="#ArialMT-30" transform="translate(55.615234 0)"/>
       <use xlink:href="#ArialMT-30" transform="translate(111.230469 0)"/>
       <use xlink:href="#ArialMT-30" transform="translate(166.845703 0)"/>
       <use xlink:href="#ArialMT-30" transform="translate(222.460938 0)"/>
      </g>
     </g>
    </g>
    <g id="text_6">
     <!-- Major Costs ($) -->
     <g style="fill: #262626" transform="translate(15.798906 180.587656) rotate(-90) scale(0.11 -0.11)">
      <defs>
       <path id="ArialMT-4d" d="M 475 0 
L 475 4581 
L 1388 4581 
L 2472 1338 
Q 2622 884 2691 659 
Q 2769 909 2934 1394 
L 4031 4581 
L 4847 4581 
L 4847 0 
L 4263 0 
L 4263 3834 
L 2931 0 
L 2384 0 
L 1059 3900 
L 1059 0 
L 475 0 
z
" transform="scale(0.015625)"/>
       <path id="ArialMT-61" d="M 2588 409 
Q 2275 144 1986 34 
Q 1697 -75 1366 -75 
Q 819 -75 525 192 
Q 231 459 231 875 
Q 231 1119 342 1320 
Q 453 1522 633 1644 
Q 813 1766 1038 1828 
Q 1203 1872 1538 1913 
Q 2219 1994 2541 2106 
Q 2544 2222 2544 2253 
Q 2544 2597 2384 2738 
Q 2169 2928 1744 2928 
Q 1347 2928 1158 2789 
Q 969 2650 878 2297 
L 328 2372 
Q 403 2725 575 2942 
Q 747 3159 1072 3276 
Q 1397 3394 1825 3394 
Q 2250 3394 2515 3294 
Q 2781 3194 2906 3042 
Q 3031 2891 3081 2659 
Q 3109 2516 3109 2141 
L 3109 1391 
Q 3109 606 3145 398 
Q 3181 191 3288 0 
L 2700 0 
Q 2613 175 2588 409 
z
M 2541 1666 
Q 2234 1541 1622 1453 
Q 1275 1403 1131 1340 
Q 988 1278 909 1158 
Q 831 1038 831 891 
Q 831 666 1001 516 
Q 1172 366 1500 366 
Q 1825 366 2078 508 
Q 2331 650 2450 897 
Q 2541 1088 2541 1459 
L 2541 1666 
z
" transform="scale(0.015625)"/>
       <path id="ArialMT-6a" d="M 419 3928 
L 419 4581 
L 981 4581 
L 981 3928 
L 419 3928 
z
M -294 -1288 
L -188 -809 
Q -19 -853 78 -853 
Q 250 -853 334 -739 
Q 419 -625 419 -169 
L 419 3319 
L 981 3319 
L 981 -181 
Q 981 -794 822 -1034 
Q 619 -1347 147 -1347 
Q -81 -1347 -294 -1288 
z
" transform="scale(0.015625)"/>
       <path id="ArialMT-6f" d="M 213 1659 
Q 213 2581 725 3025 
Q 1153 3394 1769 3394 
Q 2453 3394 2887 2945 
Q 3322 2497 3322 1706 
Q 3322 1066 3130 698 
Q 2938 331 2570 128 
Q 2203 -75 1769 -75 
Q 1072 -75 642 372 
Q 213 819 213 1659 
z
M 791 1659 
Q 791 1022 1069 705 
Q 1347 388 1769 388 
Q 2188 388 2466 706 
Q 2744 1025 2744 1678 
Q 2744 2294 2464 2611 
Q 2184 2928 1769 2928 
Q 1347 2928 1069 2612 
Q 791 2297 791 1659 
z
" transform="scale(0.015625)"/>
       <path id="ArialMT-72" d="M 416 0 
L 416 3319 
L 922 3319 
L 922 2816 
Q 1116 3169 1280 3281 
Q 1444 3394 1641 3394 
Q 1925 3394 2219 3213 
L 2025 2691 
Q 1819 2813 1613 2813 
Q 1428 2813 1281 2702 
Q 1134 2591 1072 2394 
Q 978 2094 978 1738 
L 978 0 
L 416 0 
z
" transform="scale(0.015625)"/>
       <path id="ArialMT-20" transform="scale(0.015625)"/>
       <path id="ArialMT-43" d="M 3763 1606 
L 4369 1453 
Q 4178 706 3683 314 
Q 3188 -78 2472 -78 
Q 1731 -78 1267 223 
Q 803 525 561 1097 
Q 319 1669 319 2325 
Q 319 3041 592 3573 
Q 866 4106 1370 4382 
Q 1875 4659 2481 4659 
Q 3169 4659 3637 4309 
Q 4106 3959 4291 3325 
L 3694 3184 
Q 3534 3684 3231 3912 
Q 2928 4141 2469 4141 
Q 1941 4141 1586 3887 
Q 1231 3634 1087 3207 
Q 944 2781 944 2328 
Q 944 1744 1114 1308 
Q 1284 872 1643 656 
Q 2003 441 2422 441 
Q 2931 441 3284 734 
Q 3638 1028 3763 1606 
z
" transform="scale(0.015625)"/>
       <path id="ArialMT-73" d="M 197 991 
L 753 1078 
Q 800 744 1014 566 
Q 1228 388 1613 388 
Q 2000 388 2187 545 
Q 2375 703 2375 916 
Q 2375 1106 2209 1216 
Q 2094 1291 1634 1406 
Q 1016 1563 777 1677 
Q 538 1791 414 1992 
Q 291 2194 291 2438 
Q 291 2659 392 2848 
Q 494 3038 669 3163 
Q 800 3259 1026 3326 
Q 1253 3394 1513 3394 
Q 1903 3394 2198 3281 
Q 2494 3169 2634 2976 
Q 2775 2784 2828 2463 
L 2278 2388 
Q 2241 2644 2061 2787 
Q 1881 2931 1553 2931 
Q 1166 2931 1000 2803 
Q 834 2675 834 2503 
Q 834 2394 903 2306 
Q 972 2216 1119 2156 
Q 1203 2125 1616 2013 
Q 2213 1853 2448 1751 
Q 2684 1650 2818 1456 
Q 2953 1263 2953 975 
Q 2953 694 2789 445 
Q 2625 197 2315 61 
Q 2006 -75 1616 -75 
Q 969 -75 630 194 
Q 291 463 197 991 
z
" transform="scale(0.015625)"/>
       <path id="ArialMT-74" d="M 1650 503 
L 1731 6 
Q 1494 -44 1306 -44 
Q 1000 -44 831 53 
Q 663 150 594 308 
Q 525 466 525 972 
L 525 2881 
L 113 2881 
L 113 3319 
L 525 3319 
L 525 4141 
L 1084 4478 
L 1084 3319 
L 1650 3319 
L 1650 2881 
L 1084 2881 
L 1084 941 
Q 1084 700 1114 631 
Q 1144 563 1211 522 
Q 1278 481 1403 481 
Q 1497 481 1650 503 
z
" transform="scale(0.015625)"/>
       <path id="ArialMT-28" d="M 1497 -1347 
Q 1031 -759 709 28 
Q 388 816 388 1659 
Q 388 2403 628 3084 
Q 909 3875 1497 4659 
L 1900 4659 
Q 1522 4009 1400 3731 
Q 1209 3300 1100 2831 
Q 966 2247 966 1656 
Q 966 153 1900 -1347 
L 1497 -1347 
z
" transform="scale(0.015625)"/>
       <path id="ArialMT-24" d="M 1594 -659 
L 1594 -97 
Q 1172 -44 908 92 
Q 644 228 451 531 
Q 259 834 228 1272 
L 794 1378 
Q 859 925 1025 713 
Q 1263 413 1594 378 
L 1594 2169 
Q 1247 2234 884 2438 
Q 616 2588 470 2853 
Q 325 3119 325 3456 
Q 325 4056 750 4428 
Q 1034 4678 1594 4734 
L 1594 5003 
L 1925 5003 
L 1925 4734 
Q 2416 4688 2703 4447 
Q 3072 4141 3147 3606 
L 2566 3519 
Q 2516 3850 2358 4026 
Q 2200 4203 1925 4259 
L 1925 2638 
Q 2350 2531 2488 2472 
Q 2750 2356 2915 2190 
Q 3081 2025 3170 1797 
Q 3259 1569 3259 1303 
Q 3259 719 2887 328 
Q 2516 -63 1925 -91 
L 1925 -659 
L 1594 -659 
z
M 1594 4266 
Q 1266 4216 1077 4003 
Q 888 3791 888 3500 
Q 888 3213 1048 3019 
Q 1209 2825 1594 2709 
L 1594 4266 
z
M 1925 378 
Q 2253 419 2467 662 
Q 2681 906 2681 1266 
Q 2681 1572 2529 1758 
Q 2378 1944 1925 2091 
L 1925 378 
z
" transform="scale(0.015625)"/>
       <path id="ArialMT-29" d="M 791 -1347 
L 388 -1347 
Q 1322 153 1322 1656 
Q 1322 2244 1188 2822 
Q 1081 3291 891 3722 
Q 769 4003 388 4659 
L 791 4659 
Q 1378 3875 1659 3084 
Q 1900 2403 1900 1659 
Q 1900 816 1576 28 
Q 1253 -759 791 -1347 
z
" transform="scale(0.015625)"/>
      </defs>
      <use xlink:href="#ArialMT-4d"/>
      <use xlink:href="#ArialMT-61" transform="translate(83.300781 0)"/>
      <use xlink:href="#ArialMT-6a" transform="translate(138.916016 0)"/>
      <use xlink:href="#ArialMT-6f" transform="translate(161.132812 0)"/>
      <use xlink:href="#ArialMT-72" transform="translate(216.748047 0)"/>
      <use xlink:href="#ArialMT-20" transform="translate(250.048828 0)"/>
      <use xlink:href="#ArialMT-43" transform="translate(277.832031 0)"/>
      <use xlink:href="#ArialMT-6f" transform="translate(350.048828 0)"/>
      <use xlink:href="#ArialMT-73" transform="translate(405.664062 0)"/>
      <use xlink:href="#ArialMT-74" transform="translate(455.664062 0)"/>
      <use xlink:href="#ArialMT-73" transform="translate(483.447266 0)"/>
      <use xlink:href="#ArialMT-20" transform="translate(533.447266 0)"/>
      <use xlink:href="#ArialMT-28" transform="translate(561.230469 0)"/>
      <use xlink:href="#ArialMT-24" transform="translate(594.53125 0)"/>
      <use xlink:href="#ArialMT-29" transform="translate(650.146484 0)"/>
     </g>
    </g>
   </g>
   <g id="patch_4">
    <path d="M 99.747066 248.600312 
L 176.638932 248.600312 
L 176.638932 75.492869 
L 99.747066 75.492869 
z
" clip-path="url(#p01bae715f6)" style="fill: #1f77b4; opacity: 0.6; stroke: #ffffff; stroke-linejoin: miter"/>
   </g>
   <g id="patch_5">
    <path d="M 227.900176 248.600312 
L 304.792042 248.600312 
L 304.792042 81.00307 
L 227.900176 81.00307 
z
" clip-path="url(#p01bae715f6)" style="fill: #1f77b4; opacity: 0.6; stroke: #ffffff; stroke-linejoin: miter"/>
   </g>
   <g id="patch_6">
    <path d="M 356.053286 248.600312 
L 432.945152 248.600312 
L 432.945152 78.550037 
L 356.053286 78.550037 
z
" clip-path="url(#p01bae715f6)" style="fill: #1f77b4; opacity: 0.6; stroke: #ffffff; stroke-linejoin: miter"/>
   </g>
   <g id="patch_7">
    <path d="M 484.206396 248.600312 
L 561.098262 248.600312 
L 561.098262 78.550037 
L 484.206396 78.550037 
z
" clip-path="url(#p01bae715f6)" style="fill: #1f77b4; opacity: 0.6; stroke: #ffffff; stroke-linejoin: miter"/>
   </g>
   <g id="patch_8">
    <path d="M 612.359506 248.600312 
L 689.251372 248.600312 
L 689.251372 75.492869 
L 612.359506 75.492869 
z
" clip-path="url(#p01bae715f6)" style="fill: #1f77b4; opacity: 0.6; stroke: #ffffff; stroke-linejoin: miter"/>
   </g>
   <g id="patch_9">
    <path d="M 59.699219 248.600312 
L 59.699219 37.400312 
" style="fill: none; stroke: #cccccc; stroke-width: 0.8; stroke-linejoin: miter; stroke-linecap: square"/>
   </g>
   <g id="patch_10">
    <path d="M 729.299219 248.600312 
L 729.299219 37.400312 
" style="fill: none; stroke: #cccccc; stroke-width: 0.8; stroke-linejoin: miter; stroke-linecap: square"/>
   </g>
   <g id="patch_11">
    <path d="M 59.699219 248.600312 
L 729.299219 248.600312 
" style="fill: none; stroke: #cccccc; stroke-width: 0.8; stroke-linejoin: miter; stroke-linecap: square"/>
   </g>
   <g id="patch_12">
    <path d="M 59.699219 37.400312 
L 729.299219 37.400312 
" style="fill: none; stroke: #cccccc; stroke-width: 0.8; stroke-linejoin: miter; stroke-linecap: square"/>
   </g>
   <g id="text_7">
    <!-- $45.5k -->
    <g style="fill: #262626" transform="translate(124.430733 43.669933) scale(0.09 -0.09)">
     <defs>
      <path id="Arial-BoldMT-24" d="M 1528 678 
L 1528 1988 
Q 916 2163 630 2517 
Q 344 2872 344 3378 
Q 344 3891 667 4239 
Q 991 4588 1528 4641 
L 1528 4950 
L 1981 4950 
L 1981 4641 
Q 2478 4581 2772 4301 
Q 3066 4022 3147 3553 
L 2356 3450 
Q 2284 3819 1981 3950 
L 1981 2728 
Q 2731 2525 3003 2201 
Q 3275 1878 3275 1372 
Q 3275 806 2933 418 
Q 2591 31 1981 -56 
L 1981 -641 
L 1528 -641 
L 1528 -72 
Q 988 -6 650 331 
Q 313 669 219 1284 
L 1034 1372 
Q 1084 1122 1221 940 
Q 1359 759 1528 678 
z
M 1528 3959 
Q 1344 3897 1234 3747 
Q 1125 3597 1125 3416 
Q 1125 3250 1225 3108 
Q 1325 2966 1528 2878 
L 1528 3959 
z
M 1981 634 
Q 2216 678 2362 851 
Q 2509 1025 2509 1259 
Q 2509 1469 2386 1620 
Q 2263 1772 1981 1853 
L 1981 634 
z
" transform="scale(0.015625)"/>
      <path id="Arial-BoldMT-34" d="M 1994 0 
L 1994 922 
L 119 922 
L 119 1691 
L 2106 4600 
L 2844 4600 
L 2844 1694 
L 3413 1694 
L 3413 922 
L 2844 922 
L 2844 0 
L 1994 0 
z
M 1994 1694 
L 1994 3259 
L 941 1694 
L 1994 1694 
z
" transform="scale(0.015625)"/>
      <path id="Arial-BoldMT-35" d="M 284 1178 
L 1159 1269 
Q 1197 972 1381 798 
Q 1566 625 1806 625 
Q 2081 625 2272 848 
Q 2463 1072 2463 1522 
Q 2463 1944 2273 2155 
Q 2084 2366 1781 2366 
Q 1403 2366 1103 2031 
L 391 2134 
L 841 4519 
L 3163 4519 
L 3163 3697 
L 1506 3697 
L 1369 2919 
Q 1663 3066 1969 3066 
Q 2553 3066 2959 2641 
Q 3366 2216 3366 1538 
Q 3366 972 3038 528 
Q 2591 -78 1797 -78 
Q 1163 -78 763 262 
Q 363 603 284 1178 
z
" transform="scale(0.015625)"/>
      <path id="Arial-BoldMT-2e" d="M 459 0 
L 459 878 
L 1338 878 
L 1338 0 
L 459 0 
z
" transform="scale(0.015625)"/>
      <path id="Arial-BoldMT-6b" d="M 428 0 
L 428 4581 
L 1306 4581 
L 1306 2150 
L 2334 3319 
L 3416 3319 
L 2281 2106 
L 3497 0 
L 2550 0 
L 1716 1491 
L 1306 1063 
L 1306 0 
L 428 0 
z
" transform="scale(0.015625)"/>
     </defs>
     <use xlink:href="#Arial-BoldMT-24"/>
     <use xlink:href="#Arial-BoldMT-34" transform="translate(55.615234 0)"/>
     <use xlink:href="#Arial-BoldMT-35" transform="translate(111.230469 0)"/>
     <use xlink:href="#Arial-BoldMT-2e" transform="translate(166.845703 0)"/>
     <use xlink:href="#Arial-BoldMT-35" transform="translate(194.628906 0)"/>
     <use xlink:href="#Arial-BoldMT-6b" transform="translate(250.244141 0)"/>
    </g>
   </g>
   <g id="text_8">
    <!-- $43.8k -->
    <g style="fill: #262626" transform="translate(252.583843 51.148233) scale(0.09 -0.09)">
     <defs>
      <path id="Arial-BoldMT-33" d="M 241 1216 
L 1091 1319 
Q 1131 994 1309 822 
Q 1488 650 1741 650 
Q 2013 650 2198 856 
Q 2384 1063 2384 1413 
Q 2384 1744 2206 1937 
Q 2028 2131 1772 2131 
Q 1603 2131 1369 2066 
L 1466 2781 
Q 1822 2772 2009 2936 
Q 2197 3100 2197 3372 
Q 2197 3603 2059 3740 
Q 1922 3878 1694 3878 
Q 1469 3878 1309 3722 
Q 1150 3566 1116 3266 
L 306 3403 
Q 391 3819 561 4067 
Q 731 4316 1036 4458 
Q 1341 4600 1719 4600 
Q 2366 4600 2756 4188 
Q 3078 3850 3078 3425 
Q 3078 2822 2419 2463 
Q 2813 2378 3048 2084 
Q 3284 1791 3284 1375 
Q 3284 772 2843 347 
Q 2403 -78 1747 -78 
Q 1125 -78 715 280 
Q 306 638 241 1216 
z
" transform="scale(0.015625)"/>
      <path id="Arial-BoldMT-38" d="M 1025 2472 
Q 684 2616 529 2867 
Q 375 3119 375 3419 
Q 375 3931 733 4265 
Q 1091 4600 1750 4600 
Q 2403 4600 2764 4265 
Q 3125 3931 3125 3419 
Q 3125 3100 2959 2851 
Q 2794 2603 2494 2472 
Q 2875 2319 3073 2025 
Q 3272 1731 3272 1347 
Q 3272 713 2867 316 
Q 2463 -81 1791 -81 
Q 1166 -81 750 247 
Q 259 634 259 1309 
Q 259 1681 443 1992 
Q 628 2303 1025 2472 
z
M 1206 3356 
Q 1206 3094 1354 2947 
Q 1503 2800 1750 2800 
Q 2000 2800 2150 2948 
Q 2300 3097 2300 3359 
Q 2300 3606 2151 3754 
Q 2003 3903 1759 3903 
Q 1506 3903 1356 3753 
Q 1206 3603 1206 3356 
z
M 1125 1394 
Q 1125 1031 1311 828 
Q 1497 625 1775 625 
Q 2047 625 2225 820 
Q 2403 1016 2403 1384 
Q 2403 1706 2222 1901 
Q 2041 2097 1763 2097 
Q 1441 2097 1283 1875 
Q 1125 1653 1125 1394 
z
" transform="scale(0.015625)"/>
     </defs>
     <use xlink:href="#Arial-BoldMT-24"/>
     <use xlink:href="#Arial-BoldMT-34" transform="translate(55.615234 0)"/>
     <use xlink:href="#Arial-BoldMT-33" transform="translate(111.230469 0)"/>
     <use xlink:href="#Arial-BoldMT-2e" transform="translate(166.845703 0)"/>
     <use xlink:href="#Arial-BoldMT-38" transform="translate(194.628906 0)"/>
     <use xlink:href="#Arial-BoldMT-6b" transform="translate(250.244141 0)"/>
    </g>
   </g>
   <g id="text_9">
    <!-- $44.3k -->
    <g style="fill: #262626" transform="translate(380.736953 48.785969) scale(0.09 -0.09)">
     <use xlink:href="#Arial-BoldMT-24"/>
     <use xlink:href="#Arial-BoldMT-34" transform="translate(55.615234 0)"/>
     <use xlink:href="#Arial-BoldMT-34" transform="translate(111.230469 0)"/>
     <use xlink:href="#Arial-BoldMT-2e" transform="translate(166.845703 0)"/>
     <use xlink:href="#Arial-BoldMT-33" transform="translate(194.628906 0)"/>
     <use xlink:href="#Arial-BoldMT-6b" transform="translate(250.244141 0)"/>
    </g>
   </g>
   <g id="text_10">
    <!-- $44.3k -->
    <g style="fill: #262626" transform="translate(508.890063 48.785969) scale(0.09 -0.09)">
     <use xlink:href="#Arial-BoldMT-24"/>
     <use xlink:href="#Arial-BoldMT-34" transform="translate(55.615234 0)"/>
     <use xlink:href="#Arial-BoldMT-34" transform="translate(111.230469 0)"/>
     <use xlink:href="#Arial-BoldMT-2e" transform="translate(166.845703 0)"/>
     <use xlink:href="#Arial-BoldMT-33" transform="translate(194.628906 0)"/>
     <use xlink:href="#Arial-BoldMT-6b" transform="translate(250.244141 0)"/>
    </g>
   </g>
   <g id="text_11">
    <!-- $45.5k -->
    <g style="fill: #262626" transform="translate(637.043173 43.669933) scale(0.09 -0.09)">
     <use xlink:href="#Arial-BoldMT-24"/>
     <use xlink:href="#Arial-BoldMT-34" transform="translate(55.615234 0)"/>
     <use xlink:href="#Arial-BoldMT-35" transform="translate(111.230469 0)"/>
     <use xlink:href="#Arial-BoldMT-2e" transform="translate(166.845703 0)"/>
     <use xlink:href="#Arial-BoldMT-35" transform="translate(194.628906 0)"/>
     <use xlink:href="#Arial-BoldMT-6b" transform="translate(250.244141 0)"/>
    </g>
   </g>
   <g id="text_12">
    <!-- Strategic Cost Analysis: Total vs. Operational Trade-offs -->
    <g style="fill: #262626" transform="translate(222.010469 17.400312) scale(0.14 -0.14)">
     <defs>
      <path id="ArialMT-53" d="M 288 1472 
L 859 1522 
Q 900 1178 1048 958 
Q 1197 738 1509 602 
Q 1822 466 2213 466 
Q 2559 466 2825 569 
Q 3091 672 3220 851 
Q 3350 1031 3350 1244 
Q 3350 1459 3225 1620 
Q 3100 1781 2813 1891 
Q 2628 1963 1997 2114 
Q 1366 2266 1113 2400 
Q 784 2572 623 2826 
Q 463 3081 463 3397 
Q 463 3744 659 4045 
Q 856 4347 1234 4503 
Q 1613 4659 2075 4659 
Q 2584 4659 2973 4495 
Q 3363 4331 3572 4012 
Q 3781 3694 3797 3291 
L 3216 3247 
Q 3169 3681 2898 3903 
Q 2628 4125 2100 4125 
Q 1550 4125 1298 3923 
Q 1047 3722 1047 3438 
Q 1047 3191 1225 3031 
Q 1400 2872 2139 2705 
Q 2878 2538 3153 2413 
Q 3553 2228 3743 1945 
Q 3934 1663 3934 1294 
Q 3934 928 3725 604 
Q 3516 281 3123 101 
Q 2731 -78 2241 -78 
Q 1619 -78 1198 103 
Q 778 284 539 648 
Q 300 1013 288 1472 
z
" transform="scale(0.015625)"/>
      <path id="ArialMT-65" d="M 2694 1069 
L 3275 997 
Q 3138 488 2766 206 
Q 2394 -75 1816 -75 
Q 1088 -75 661 373 
Q 234 822 234 1631 
Q 234 2469 665 2931 
Q 1097 3394 1784 3394 
Q 2450 3394 2872 2941 
Q 3294 2488 3294 1666 
Q 3294 1616 3291 1516 
L 816 1516 
Q 847 969 1125 678 
Q 1403 388 1819 388 
Q 2128 388 2347 550 
Q 2566 713 2694 1069 
z
M 847 1978 
L 2700 1978 
Q 2663 2397 2488 2606 
Q 2219 2931 1791 2931 
Q 1403 2931 1139 2672 
Q 875 2413 847 1978 
z
" transform="scale(0.015625)"/>
      <path id="ArialMT-67" d="M 319 -275 
L 866 -356 
Q 900 -609 1056 -725 
Q 1266 -881 1628 -881 
Q 2019 -881 2231 -725 
Q 2444 -569 2519 -288 
Q 2563 -116 2559 434 
Q 2191 0 1641 0 
Q 956 0 581 494 
Q 206 988 206 1678 
Q 206 2153 378 2554 
Q 550 2956 876 3175 
Q 1203 3394 1644 3394 
Q 2231 3394 2613 2919 
L 2613 3319 
L 3131 3319 
L 3131 450 
Q 3131 -325 2973 -648 
Q 2816 -972 2473 -1159 
Q 2131 -1347 1631 -1347 
Q 1038 -1347 672 -1080 
Q 306 -813 319 -275 
z
M 784 1719 
Q 784 1066 1043 766 
Q 1303 466 1694 466 
Q 2081 466 2343 764 
Q 2606 1063 2606 1700 
Q 2606 2309 2336 2618 
Q 2066 2928 1684 2928 
Q 1309 2928 1046 2623 
Q 784 2319 784 1719 
z
" transform="scale(0.015625)"/>
      <path id="ArialMT-69" d="M 425 3934 
L 425 4581 
L 988 4581 
L 988 3934 
L 425 3934 
z
M 425 0 
L 425 3319 
L 988 3319 
L 988 0 
L 425 0 
z
" transform="scale(0.015625)"/>
      <path id="ArialMT-63" d="M 2588 1216 
L 3141 1144 
Q 3050 572 2676 248 
Q 2303 -75 1759 -75 
Q 1078 -75 664 370 
Q 250 816 250 1647 
Q 250 2184 428 2587 
Q 606 2991 970 3192 
Q 1334 3394 1763 3394 
Q 2303 3394 2647 3120 
Q 2991 2847 3088 2344 
L 2541 2259 
Q 2463 2594 2264 2762 
Q 2066 2931 1784 2931 
Q 1359 2931 1093 2626 
Q 828 2322 828 1663 
Q 828 994 1084 691 
Q 1341 388 1753 388 
Q 2084 388 2306 591 
Q 2528 794 2588 1216 
z
" transform="scale(0.015625)"/>
      <path id="ArialMT-41" d="M -9 0 
L 1750 4581 
L 2403 4581 
L 4278 0 
L 3588 0 
L 3053 1388 
L 1138 1388 
L 634 0 
L -9 0 
z
M 1313 1881 
L 2866 1881 
L 2388 3150 
Q 2169 3728 2063 4100 
Q 1975 3659 1816 3225 
L 1313 1881 
z
" transform="scale(0.015625)"/>
      <path id="ArialMT-6e" d="M 422 0 
L 422 3319 
L 928 3319 
L 928 2847 
Q 1294 3394 1984 3394 
Q 2284 3394 2536 3286 
Q 2788 3178 2913 3003 
Q 3038 2828 3088 2588 
Q 3119 2431 3119 2041 
L 3119 0 
L 2556 0 
L 2556 2019 
Q 2556 2363 2490 2533 
Q 2425 2703 2258 2804 
Q 2091 2906 1866 2906 
Q 1506 2906 1245 2678 
Q 984 2450 984 1813 
L 984 0 
L 422 0 
z
" transform="scale(0.015625)"/>
      <path id="ArialMT-6c" d="M 409 0 
L 409 4581 
L 972 4581 
L 972 0 
L 409 0 
z
" transform="scale(0.015625)"/>
      <path id="ArialMT-79" d="M 397 -1278 
L 334 -750 
Q 519 -800 656 -800 
Q 844 -800 956 -737 
Q 1069 -675 1141 -563 
Q 1194 -478 1313 -144 
Q 1328 -97 1363 -6 
L 103 3319 
L 709 3319 
L 1400 1397 
Q 1534 1031 1641 628 
Q 1738 1016 1872 1384 
L 2581 3319 
L 3144 3319 
L 1881 -56 
Q 1678 -603 1566 -809 
Q 1416 -1088 1222 -1217 
Q 1028 -1347 759 -1347 
Q 597 -1347 397 -1278 
z
" transform="scale(0.015625)"/>
      <path id="ArialMT-3a" d="M 578 2678 
L 578 3319 
L 1219 3319 
L 1219 2678 
L 578 2678 
z
M 578 0 
L 578 641 
L 1219 641 
L 1219 0 
L 578 0 
z
" transform="scale(0.015625)"/>
      <path id="ArialMT-54" d="M 1659 0 
L 1659 4041 
L 150 4041 
L 150 4581 
L 3781 4581 
L 3781 4041 
L 2266 4041 
L 2266 0 
L 1659 0 
z
" transform="scale(0.015625)"/>
      <path id="ArialMT-76" d="M 1344 0 
L 81 3319 
L 675 3319 
L 1388 1331 
Q 1503 1009 1600 663 
Q 1675 925 1809 1294 
L 2547 3319 
L 3125 3319 
L 1869 0 
L 1344 0 
z
" transform="scale(0.015625)"/>
      <path id="ArialMT-2e" d="M 581 0 
L 581 641 
L 1222 641 
L 1222 0 
L 581 0 
z
" transform="scale(0.015625)"/>
      <path id="ArialMT-4f" d="M 309 2231 
Q 309 3372 921 4017 
Q 1534 4663 2503 4663 
Q 3138 4663 3647 4359 
Q 4156 4056 4423 3514 
Q 4691 2972 4691 2284 
Q 4691 1588 4409 1038 
Q 4128 488 3612 205 
Q 3097 -78 2500 -78 
Q 1853 -78 1343 234 
Q 834 547 571 1087 
Q 309 1628 309 2231 
z
M 934 2222 
Q 934 1394 1379 917 
Q 1825 441 2497 441 
Q 3181 441 3623 922 
Q 4066 1403 4066 2288 
Q 4066 2847 3877 3264 
Q 3688 3681 3323 3911 
Q 2959 4141 2506 4141 
Q 1863 4141 1398 3698 
Q 934 3256 934 2222 
z
" transform="scale(0.015625)"/>
      <path id="ArialMT-70" d="M 422 -1272 
L 422 3319 
L 934 3319 
L 934 2888 
Q 1116 3141 1344 3267 
Q 1572 3394 1897 3394 
Q 2322 3394 2647 3175 
Q 2972 2956 3137 2557 
Q 3303 2159 3303 1684 
Q 3303 1175 3120 767 
Q 2938 359 2589 142 
Q 2241 -75 1856 -75 
Q 1575 -75 1351 44 
Q 1128 163 984 344 
L 984 -1272 
L 422 -1272 
z
M 931 1641 
Q 931 1000 1190 694 
Q 1450 388 1819 388 
Q 2194 388 2461 705 
Q 2728 1022 2728 1688 
Q 2728 2322 2467 2637 
Q 2206 2953 1844 2953 
Q 1484 2953 1207 2617 
Q 931 2281 931 1641 
z
" transform="scale(0.015625)"/>
      <path id="ArialMT-64" d="M 2575 0 
L 2575 419 
Q 2259 -75 1647 -75 
Q 1250 -75 917 144 
Q 584 363 401 755 
Q 219 1147 219 1656 
Q 219 2153 384 2558 
Q 550 2963 881 3178 
Q 1213 3394 1622 3394 
Q 1922 3394 2156 3267 
Q 2391 3141 2538 2938 
L 2538 4581 
L 3097 4581 
L 3097 0 
L 2575 0 
z
M 797 1656 
Q 797 1019 1065 703 
Q 1334 388 1700 388 
Q 2069 388 2326 689 
Q 2584 991 2584 1609 
Q 2584 2291 2321 2609 
Q 2059 2928 1675 2928 
Q 1300 2928 1048 2622 
Q 797 2316 797 1656 
z
" transform="scale(0.015625)"/>
      <path id="ArialMT-2d" d="M 203 1375 
L 203 1941 
L 1931 1941 
L 1931 1375 
L 203 1375 
z
" transform="scale(0.015625)"/>
      <path id="ArialMT-66" d="M 556 0 
L 556 2881 
L 59 2881 
L 59 3319 
L 556 3319 
L 556 3672 
Q 556 4006 616 4169 
Q 697 4388 901 4523 
Q 1106 4659 1475 4659 
Q 1713 4659 2000 4603 
L 1916 4113 
Q 1741 4144 1584 4144 
Q 1328 4144 1222 4034 
Q 1116 3925 1116 3625 
L 1116 3319 
L 1763 3319 
L 1763 2881 
L 1116 2881 
L 1116 0 
L 556 0 
z
" transform="scale(0.015625)"/>
     </defs>
     <use xlink:href="#ArialMT-53"/>
     <use xlink:href="#ArialMT-74" transform="translate(66.699219 0)"/>
     <use xlink:href="#ArialMT-72" transform="translate(94.482422 0)"/>
     <use xlink:href="#ArialMT-61" transform="translate(127.783203 0)"/>
     <use xlink:href="#ArialMT-74" transform="translate(183.398438 0)"/>
     <use xlink:href="#ArialMT-65" transform="translate(211.181641 0)"/>
     <use xlink:href="#ArialMT-67" transform="translate(266.796875 0)"/>
     <use xlink:href="#ArialMT-69" transform="translate(322.412109 0)"/>
     <use xlink:href="#ArialMT-63" transform="translate(344.628906 0)"/>
     <use xlink:href="#ArialMT-20" transform="translate(394.628906 0)"/>
     <use xlink:href="#ArialMT-43" transform="translate(422.412109 0)"/>
     <use xlink:href="#ArialMT-6f" transform="translate(494.628906 0)"/>
     <use xlink:href="#ArialMT-73" transform="translate(550.244141 0)"/>
     <use xlink:href="#ArialMT-74" transform="translate(600.244141 0)"/>
     <use xlink:href="#ArialMT-20" transform="translate(628.027344 0)"/>
     <use xlink:href="#ArialMT-41" transform="translate(650.310547 0)"/>
     <use xlink:href="#ArialMT-6e" transform="translate(717.009766 0)"/>
     <use xlink:href="#ArialMT-61" transform="translate(772.625 0)"/>
     <use xlink:href="#ArialMT-6c" transform="translate(828.240234 0)"/>
     <use xlink:href="#ArialMT-79" transform="translate(850.457031 0)"/>
     <use xlink:href="#ArialMT-73" transform="translate(900.457031 0)"/>
     <use xlink:href="#ArialMT-69" transform="translate(950.457031 0)"/>
     <use xlink:href="#ArialMT-73" transform="translate(972.673828 0)"/>
     <use xlink:href="#ArialMT-3a" transform="translate(1022.673828 0)"/>
     <use xlink:href="#ArialMT-20" transform="translate(1050.457031 0)"/>
     <use xlink:href="#ArialMT-54" transform="translate(1076.490234 0)"/>
     <use xlink:href="#ArialMT-6f" transform="translate(1126.449219 0)"/>
     <use xlink:href="#ArialMT-74" transform="translate(1182.064453 0)"/>
     <use xlink:href="#ArialMT-61" transform="translate(1209.847656 0)"/>
     <use xlink:href="#ArialMT-6c" transform="translate(1265.462891 0)"/>
     <use xlink:href="#ArialMT-20" transform="translate(1287.679688 0)"/>
     <use xlink:href="#ArialMT-76" transform="translate(1315.462891 0)"/>
     <use xlink:href="#ArialMT-73" transform="translate(1365.462891 0)"/>
     <use xlink:href="#ArialMT-2e" transform="translate(1415.462891 0)"/>
     <use xlink:href="#ArialMT-20" transform="translate(1443.246094 0)"/>
     <use xlink:href="#ArialMT-4f" transform="translate(1471.029297 0)"/>
     <use xlink:href="#ArialMT-70" transform="translate(1548.8125 0)"/>
     <use xlink:href="#ArialMT-65" transform="translate(1604.427734 0)"/>
     <use xlink:href="#ArialMT-72" transform="translate(1660.042969 0)"/>
     <use xlink:href="#ArialMT-61" transform="translate(1693.34375 0)"/>
     <use xlink:href="#ArialMT-74" transform="translate(1748.958984 0)"/>
     <use xlink:href="#ArialMT-69" transform="translate(1776.742188 0)"/>
     <use xlink:href="#ArialMT-6f" transform="translate(1798.958984 0)"/>
     <use xlink:href="#ArialMT-6e" transform="translate(1854.574219 0)"/>
     <use xlink:href="#ArialMT-61" transform="translate(1910.189453 0)"/>
     <use xlink:href="#ArialMT-6c" transform="translate(1965.804688 0)"/>
     <use xlink:href="#ArialMT-20" transform="translate(1988.021484 0)"/>
     <use xlink:href="#ArialMT-54" transform="translate(2014.054688 0)"/>
     <use xlink:href="#ArialMT-72" transform="translate(2071.388672 0)"/>
     <use xlink:href="#ArialMT-61" transform="translate(2104.689453 0)"/>
     <use xlink:href="#ArialMT-64" transform="translate(2160.304688 0)"/>
     <use xlink:href="#ArialMT-65" transform="translate(2215.919922 0)"/>
     <use xlink:href="#ArialMT-2d" transform="translate(2271.535156 0)"/>
     <use xlink:href="#ArialMT-6f" transform="translate(2304.835938 0)"/>
     <use xlink:href="#ArialMT-66" transform="translate(2360.451172 0)"/>
     <use xlink:href="#ArialMT-66" transform="translate(2386.484375 0)"/>
     <use xlink:href="#ArialMT-73" transform="translate(2414.267578 0)"/>
    </g>
   </g>
   <g id="legend_1">
    <g id="patch_13">
     <path d="M 597.759844 77.582969 
L 721.599219 77.582969 
Q 723.799219 77.582969 723.799219 75.382969 
L 723.799219 45.100312 
Q 723.799219 42.900312 721.599219 42.900312 
L 597.759844 42.900312 
Q 595.559844 42.900312 595.559844 45.100312 
L 595.559844 75.382969 
Q 595.559844 77.582969 597.759844 77.582969 
z
" style="fill: #ffffff; opacity: 0.8; stroke: #cccccc; stroke-linejoin: miter"/>
    </g>
    <g id="line2d_6">
     <path d="M 599.959844 51.457969 
L 610.959844 51.457969 
L 621.959844 51.457969 
" style="fill: none; stroke: #000000; stroke-width: 2; stroke-linecap: round"/>
     <defs>
      <path id="mcad14c1052" d="M 0 5 
C 1.326016 5 2.597899 4.473168 3.535534 3.535534 
C 4.473168 2.597899 5 1.326016 5 0 
C 5 -1.326016 4.473168 -2.597899 3.535534 -3.535534 
C 2.597899 -4.473168 1.326016 -5 0 -5 
C -1.326016 -5 -2.597899 -4.473168 -3.535534 -3.535534 
C -4.473168 -2.597899 -5 -1.326016 -5 0 
C -5 1.326016 -4.473168 2.597899 -3.535534 3.535534 
C -2.597899 4.473168 -1.326016 5 0 5 
z
" style="stroke: #000000"/>
     </defs>
     <g>
      <use xlink:href="#mcad14c1052" x="610.959844" y="51.457969" style="stroke: #000000"/>
     </g>
    </g>
    <g id="text_13">
     <!-- Total Daily Cost -->
     <g style="fill: #262626" transform="translate(630.759844 55.307969) scale(0.11 -0.11)">
      <defs>
       <path id="ArialMT-44" d="M 494 0 
L 494 4581 
L 2072 4581 
Q 2606 4581 2888 4516 
Q 3281 4425 3559 4188 
Q 3922 3881 4101 3404 
Q 4281 2928 4281 2316 
Q 4281 1794 4159 1391 
Q 4038 988 3847 723 
Q 3656 459 3429 307 
Q 3203 156 2883 78 
Q 2563 0 2147 0 
L 494 0 
z
M 1100 541 
L 2078 541 
Q 2531 541 2789 625 
Q 3047 709 3200 863 
Q 3416 1078 3536 1442 
Q 3656 1806 3656 2325 
Q 3656 3044 3420 3430 
Q 3184 3816 2847 3947 
Q 2603 4041 2063 4041 
L 1100 4041 
L 1100 541 
z
" transform="scale(0.015625)"/>
      </defs>
      <use xlink:href="#ArialMT-54"/>
      <use xlink:href="#ArialMT-6f" transform="translate(49.958984 0)"/>
      <use xlink:href="#ArialMT-74" transform="translate(105.574219 0)"/>
      <use xlink:href="#ArialMT-61" transform="translate(133.357422 0)"/>
      <use xlink:href="#ArialMT-6c" transform="translate(188.972656 0)"/>
      <use xlink:href="#ArialMT-20" transform="translate(211.189453 0)"/>
      <use xlink:href="#ArialMT-44" transform="translate(238.972656 0)"/>
      <use xlink:href="#ArialMT-61" transform="translate(311.189453 0)"/>
      <use xlink:href="#ArialMT-69" transform="translate(366.804688 0)"/>
      <use xlink:href="#ArialMT-6c" transform="translate(389.021484 0)"/>
      <use xlink:href="#ArialMT-79" transform="translate(411.238281 0)"/>
      <use xlink:href="#ArialMT-20" transform="translate(461.238281 0)"/>
      <use xlink:href="#ArialMT-43" transform="translate(489.021484 0)"/>
      <use xlink:href="#ArialMT-6f" transform="translate(561.238281 0)"/>
      <use xlink:href="#ArialMT-73" transform="translate(616.853516 0)"/>
      <use xlink:href="#ArialMT-74" transform="translate(666.853516 0)"/>
     </g>
    </g>
    <g id="patch_14">
     <path d="M 599.959844 70.996719 
L 621.959844 70.996719 
L 621.959844 63.296719 
L 599.959844 63.296719 
z
" style="fill: #1f77b4; opacity: 0.6; stroke: #ffffff; stroke-linejoin: miter"/>
    </g>
    <g id="text_14">
     <!-- Procurement Cost -->
     <g style="fill: #262626" transform="translate(630.759844 70.996719) scale(0.11 -0.11)">
      <defs>
       <path id="ArialMT-50" d="M 494 0 
L 494 4581 
L 2222 4581 
Q 2678 4581 2919 4538 
Q 3256 4481 3484 4323 
Q 3713 4166 3852 3881 
Q 3991 3597 3991 3256 
Q 3991 2672 3619 2267 
Q 3247 1863 2275 1863 
L 1100 1863 
L 1100 0 
L 494 0 
z
M 1100 2403 
L 2284 2403 
Q 2872 2403 3119 2622 
Q 3366 2841 3366 3238 
Q 3366 3525 3220 3729 
Q 3075 3934 2838 4000 
Q 2684 4041 2272 4041 
L 1100 4041 
L 1100 2403 
z
" transform="scale(0.015625)"/>
       <path id="ArialMT-75" d="M 2597 0 
L 2597 488 
Q 2209 -75 1544 -75 
Q 1250 -75 995 37 
Q 741 150 617 320 
Q 494 491 444 738 
Q 409 903 409 1263 
L 409 3319 
L 972 3319 
L 972 1478 
Q 972 1038 1006 884 
Q 1059 663 1231 536 
Q 1403 409 1656 409 
Q 1909 409 2131 539 
Q 2353 669 2445 892 
Q 2538 1116 2538 1541 
L 2538 3319 
L 3100 3319 
L 3100 0 
L 2597 0 
z
" transform="scale(0.015625)"/>
       <path id="ArialMT-6d" d="M 422 0 
L 422 3319 
L 925 3319 
L 925 2853 
Q 1081 3097 1340 3245 
Q 1600 3394 1931 3394 
Q 2300 3394 2536 3241 
Q 2772 3088 2869 2813 
Q 3263 3394 3894 3394 
Q 4388 3394 4653 3120 
Q 4919 2847 4919 2278 
L 4919 0 
L 4359 0 
L 4359 2091 
Q 4359 2428 4304 2576 
Q 4250 2725 4106 2815 
Q 3963 2906 3769 2906 
Q 3419 2906 3187 2673 
Q 2956 2441 2956 1928 
L 2956 0 
L 2394 0 
L 2394 2156 
Q 2394 2531 2256 2718 
Q 2119 2906 1806 2906 
Q 1569 2906 1367 2781 
Q 1166 2656 1075 2415 
Q 984 2175 984 1722 
L 984 0 
L 422 0 
z
" transform="scale(0.015625)"/>
      </defs>
      <use xlink:href="#ArialMT-50"/>
      <use xlink:href="#ArialMT-72" transform="translate(66.699219 0)"/>
      <use xlink:href="#ArialMT-6f" transform="translate(100 0)"/>
      <use xlink:href="#ArialMT-63" transform="translate(155.615234 0)"/>
      <use xlink:href="#ArialMT-75" transform="translate(205.615234 0)"/>
      <use xlink:href="#ArialMT-72" transform="translate(261.230469 0)"/>
      <use xlink:href="#ArialMT-65" transform="translate(294.53125 0)"/>
      <use xlink:href="#ArialMT-6d" transform="translate(350.146484 0)"/>
      <use xlink:href="#ArialMT-65" transform="translate(433.447266 0)"/>
      <use xlink:href="#ArialMT-6e" transform="translate(489.0625 0)"/>
      <use xlink:href="#ArialMT-74" transform="translate(544.677734 0)"/>
      <use xlink:href="#ArialMT-20" transform="translate(572.460938 0)"/>
      <use xlink:href="#ArialMT-43" transform="translate(600.244141 0)"/>
      <use xlink:href="#ArialMT-6f" transform="translate(672.460938 0)"/>
      <use xlink:href="#ArialMT-73" transform="translate(728.076172 0)"/>
      <use xlink:href="#ArialMT-74" transform="translate(778.076172 0)"/>
     </g>
    </g>
   </g>
   <g id="line2d_7">
    <path d="M 138.192999 47.457455 
L 266.346109 54.861713 
L 394.499219 52.522837 
L 522.652329 52.522837 
L 650.805439 47.457455 
" clip-path="url(#p01bae715f6)" style="fill: none; stroke: #000000; stroke-width: 2; stroke-linecap: round"/>
    <g clip-path="url(#p01bae715f6)">
     <use xlink:href="#mcad14c1052" x="138.192999" y="47.457455" style="stroke: #000000"/>
     <use xlink:href="#mcad14c1052" x="266.346109" y="54.861713" style="stroke: #000000"/>
     <use xlink:href="#mcad14c1052" x="394.499219" y="52.522837" style="stroke: #000000"/>
     <use xlink:href="#mcad14c1052" x="522.652329" y="52.522837" style="stroke: #000000"/>
     <use xlink:href="#mcad14c1052" x="650.805439" y="47.457455" style="stroke: #000000"/>
    </g>
   </g>
  </g>
  <g id="axes_2">
   <g id="patch_15">
    <path d="M 59.699219 591.800312 
L 729.299219 591.800312 
L 729.299219 275.000312 
L 59.699219 275.000312 
z
" style="fill: #ffffff"/>
   </g>
   <g id="patch_16">
    <path d="M 215.084865 591.800312 
L 317.607353 591.800312 
L 317.607353 275.000312 
L 215.084865 275.000312 
z
" clip-path="url(#pf63b53fd14)" style="fill: #ffd700; opacity: 0.1; stroke: #ffd700; stroke-linejoin: miter"/>
   </g>
   <g id="matplotlib.axis_3">
    <g id="xtick_6">
     <g id="line2d_8">
      <path d="M 138.192999 591.800312 
L 138.192999 275.000312 
" clip-path="url(#pf63b53fd14)" style="fill: none; stroke-dasharray: 2.96,1.28; stroke-dashoffset: 0; stroke: #cccccc; stroke-opacity: 0.3; stroke-width: 0.8"/>
     </g>
     <g id="text_15">
      <!-- Hyper-Fresh -->
      <g style="fill: #262626" transform="translate(105.79628 606.673906) scale(0.11 -0.11)">
       <defs>
        <path id="Arial-BoldMT-48" d="M 469 0 
L 469 4581 
L 1394 4581 
L 1394 2778 
L 3206 2778 
L 3206 4581 
L 4131 4581 
L 4131 0 
L 3206 0 
L 3206 2003 
L 1394 2003 
L 1394 0 
L 469 0 
z
" transform="scale(0.015625)"/>
        <path id="Arial-BoldMT-79" d="M 44 3319 
L 978 3319 
L 1772 963 
L 2547 3319 
L 3456 3319 
L 2284 125 
L 2075 -453 
Q 1959 -744 1854 -897 
Q 1750 -1050 1614 -1145 
Q 1478 -1241 1279 -1294 
Q 1081 -1347 831 -1347 
Q 578 -1347 334 -1294 
L 256 -606 
Q 463 -647 628 -647 
Q 934 -647 1081 -467 
Q 1228 -288 1306 -9 
L 44 3319 
z
" transform="scale(0.015625)"/>
        <path id="Arial-BoldMT-70" d="M 434 3319 
L 1253 3319 
L 1253 2831 
Q 1413 3081 1684 3237 
Q 1956 3394 2288 3394 
Q 2866 3394 3269 2941 
Q 3672 2488 3672 1678 
Q 3672 847 3265 386 
Q 2859 -75 2281 -75 
Q 2006 -75 1782 34 
Q 1559 144 1313 409 
L 1313 -1263 
L 434 -1263 
L 434 3319 
z
M 1303 1716 
Q 1303 1156 1525 889 
Q 1747 622 2066 622 
Q 2372 622 2575 867 
Q 2778 1113 2778 1672 
Q 2778 2194 2568 2447 
Q 2359 2700 2050 2700 
Q 1728 2700 1515 2451 
Q 1303 2203 1303 1716 
z
" transform="scale(0.015625)"/>
        <path id="Arial-BoldMT-65" d="M 2381 1056 
L 3256 909 
Q 3088 428 2723 176 
Q 2359 -75 1813 -75 
Q 947 -75 531 491 
Q 203 944 203 1634 
Q 203 2459 634 2926 
Q 1066 3394 1725 3394 
Q 2466 3394 2894 2905 
Q 3322 2416 3303 1406 
L 1103 1406 
Q 1113 1016 1316 798 
Q 1519 581 1822 581 
Q 2028 581 2168 693 
Q 2309 806 2381 1056 
z
M 2431 1944 
Q 2422 2325 2234 2523 
Q 2047 2722 1778 2722 
Q 1491 2722 1303 2513 
Q 1116 2303 1119 1944 
L 2431 1944 
z
" transform="scale(0.015625)"/>
        <path id="Arial-BoldMT-72" d="M 1300 0 
L 422 0 
L 422 3319 
L 1238 3319 
L 1238 2847 
Q 1447 3181 1614 3287 
Q 1781 3394 1994 3394 
Q 2294 3394 2572 3228 
L 2300 2463 
Q 2078 2606 1888 2606 
Q 1703 2606 1575 2504 
Q 1447 2403 1373 2137 
Q 1300 1872 1300 1025 
L 1300 0 
z
" transform="scale(0.015625)"/>
        <path id="Arial-BoldMT-2d" d="M 359 1222 
L 359 2100 
L 2084 2100 
L 2084 1222 
L 359 1222 
z
" transform="scale(0.015625)"/>
        <path id="Arial-BoldMT-46" d="M 472 0 
L 472 4581 
L 3613 4581 
L 3613 3806 
L 1397 3806 
L 1397 2722 
L 3309 2722 
L 3309 1947 
L 1397 1947 
L 1397 0 
L 472 0 
z
" transform="scale(0.015625)"/>
        <path id="Arial-BoldMT-73" d="M 150 947 
L 1031 1081 
Q 1088 825 1259 692 
Q 1431 559 1741 559 
Q 2081 559 2253 684 
Q 2369 772 2369 919 
Q 2369 1019 2306 1084 
Q 2241 1147 2013 1200 
Q 950 1434 666 1628 
Q 272 1897 272 2375 
Q 272 2806 612 3100 
Q 953 3394 1669 3394 
Q 2350 3394 2681 3172 
Q 3013 2950 3138 2516 
L 2309 2363 
Q 2256 2556 2107 2659 
Q 1959 2763 1684 2763 
Q 1338 2763 1188 2666 
Q 1088 2597 1088 2488 
Q 1088 2394 1175 2328 
Q 1294 2241 1995 2081 
Q 2697 1922 2975 1691 
Q 3250 1456 3250 1038 
Q 3250 581 2869 253 
Q 2488 -75 1741 -75 
Q 1063 -75 667 200 
Q 272 475 150 947 
z
" transform="scale(0.015625)"/>
        <path id="Arial-BoldMT-68" d="M 1334 4581 
L 1334 2897 
Q 1759 3394 2350 3394 
Q 2653 3394 2897 3281 
Q 3141 3169 3264 2994 
Q 3388 2819 3433 2606 
Q 3478 2394 3478 1947 
L 3478 0 
L 2600 0 
L 2600 1753 
Q 2600 2275 2550 2415 
Q 2500 2556 2373 2639 
Q 2247 2722 2056 2722 
Q 1838 2722 1666 2615 
Q 1494 2509 1414 2295 
Q 1334 2081 1334 1663 
L 1334 0 
L 456 0 
L 456 4581 
L 1334 4581 
z
" transform="scale(0.015625)"/>
       </defs>
       <use xlink:href="#Arial-BoldMT-48"/>
       <use xlink:href="#Arial-BoldMT-79" transform="translate(72.216797 0)"/>
       <use xlink:href="#Arial-BoldMT-70" transform="translate(127.832031 0)"/>
       <use xlink:href="#Arial-BoldMT-65" transform="translate(188.916016 0)"/>
       <use xlink:href="#Arial-BoldMT-72" transform="translate(244.53125 0)"/>
       <use xlink:href="#Arial-BoldMT-2d" transform="translate(283.447266 0)"/>
       <use xlink:href="#Arial-BoldMT-46" transform="translate(316.748047 0)"/>
       <use xlink:href="#Arial-BoldMT-72" transform="translate(377.832031 0)"/>
       <use xlink:href="#Arial-BoldMT-65" transform="translate(416.748047 0)"/>
       <use xlink:href="#Arial-BoldMT-73" transform="translate(472.363281 0)"/>
       <use xlink:href="#Arial-BoldMT-68" transform="translate(527.978516 0)"/>
      </g>
     </g>
    </g>
    <g id="xtick_7">
     <g id="line2d_9">
      <path d="M 266.346109 591.800312 
L 266.346109 275.000312 
" clip-path="url(#pf63b53fd14)" style="fill: none; stroke-dasharray: 2.96,1.28; stroke-dashoffset: 0; stroke: #cccccc; stroke-opacity: 0.3; stroke-width: 0.8"/>
     </g>
     <g id="text_16">
      <!-- Local-Batch -->
      <g style="fill: #262626" transform="translate(234.871499 606.673906) scale(0.11 -0.11)">
       <defs>
        <path id="Arial-BoldMT-4c" d="M 491 0 
L 491 4544 
L 1416 4544 
L 1416 772 
L 3716 772 
L 3716 0 
L 491 0 
z
" transform="scale(0.015625)"/>
        <path id="Arial-BoldMT-6f" d="M 256 1706 
Q 256 2144 472 2553 
Q 688 2963 1083 3178 
Q 1478 3394 1966 3394 
Q 2719 3394 3200 2905 
Q 3681 2416 3681 1669 
Q 3681 916 3195 420 
Q 2709 -75 1972 -75 
Q 1516 -75 1102 131 
Q 688 338 472 736 
Q 256 1134 256 1706 
z
M 1156 1659 
Q 1156 1166 1390 903 
Q 1625 641 1969 641 
Q 2313 641 2545 903 
Q 2778 1166 2778 1666 
Q 2778 2153 2545 2415 
Q 2313 2678 1969 2678 
Q 1625 2678 1390 2415 
Q 1156 2153 1156 1659 
z
" transform="scale(0.015625)"/>
        <path id="Arial-BoldMT-63" d="M 3353 2338 
L 2488 2181 
Q 2444 2441 2289 2572 
Q 2134 2703 1888 2703 
Q 1559 2703 1364 2476 
Q 1169 2250 1169 1719 
Q 1169 1128 1367 884 
Q 1566 641 1900 641 
Q 2150 641 2309 783 
Q 2469 925 2534 1272 
L 3397 1125 
Q 3263 531 2881 228 
Q 2500 -75 1859 -75 
Q 1131 -75 698 384 
Q 266 844 266 1656 
Q 266 2478 700 2936 
Q 1134 3394 1875 3394 
Q 2481 3394 2839 3133 
Q 3197 2872 3353 2338 
z
" transform="scale(0.015625)"/>
        <path id="Arial-BoldMT-61" d="M 1116 2306 
L 319 2450 
Q 453 2931 781 3162 
Q 1109 3394 1756 3394 
Q 2344 3394 2631 3255 
Q 2919 3116 3036 2902 
Q 3153 2688 3153 2116 
L 3144 1091 
Q 3144 653 3186 445 
Q 3228 238 3344 0 
L 2475 0 
Q 2441 88 2391 259 
Q 2369 338 2359 363 
Q 2134 144 1878 34 
Q 1622 -75 1331 -75 
Q 819 -75 523 203 
Q 228 481 228 906 
Q 228 1188 362 1408 
Q 497 1628 739 1745 
Q 981 1863 1438 1950 
Q 2053 2066 2291 2166 
L 2291 2253 
Q 2291 2506 2166 2614 
Q 2041 2722 1694 2722 
Q 1459 2722 1328 2630 
Q 1197 2538 1116 2306 
z
M 2291 1594 
Q 2122 1538 1756 1459 
Q 1391 1381 1278 1306 
Q 1106 1184 1106 997 
Q 1106 813 1243 678 
Q 1381 544 1594 544 
Q 1831 544 2047 700 
Q 2206 819 2256 991 
Q 2291 1103 2291 1419 
L 2291 1594 
z
" transform="scale(0.015625)"/>
        <path id="Arial-BoldMT-6c" d="M 459 0 
L 459 4581 
L 1338 4581 
L 1338 0 
L 459 0 
z
" transform="scale(0.015625)"/>
        <path id="Arial-BoldMT-42" d="M 469 4581 
L 2300 4581 
Q 2844 4581 3111 4536 
Q 3378 4491 3589 4347 
Q 3800 4203 3940 3964 
Q 4081 3725 4081 3428 
Q 4081 3106 3907 2837 
Q 3734 2569 3438 2434 
Q 3856 2313 4081 2019 
Q 4306 1725 4306 1328 
Q 4306 1016 4161 720 
Q 4016 425 3764 248 
Q 3513 72 3144 31 
Q 2913 6 2028 0 
L 469 0 
L 469 4581 
z
M 1394 3819 
L 1394 2759 
L 2000 2759 
Q 2541 2759 2672 2775 
Q 2909 2803 3045 2939 
Q 3181 3075 3181 3297 
Q 3181 3509 3064 3642 
Q 2947 3775 2716 3803 
Q 2578 3819 1925 3819 
L 1394 3819 
z
M 1394 1997 
L 1394 772 
L 2250 772 
Q 2750 772 2884 800 
Q 3091 838 3220 983 
Q 3350 1128 3350 1372 
Q 3350 1578 3250 1722 
Q 3150 1866 2961 1931 
Q 2772 1997 2141 1997 
L 1394 1997 
z
" transform="scale(0.015625)"/>
        <path id="Arial-BoldMT-74" d="M 1981 3319 
L 1981 2619 
L 1381 2619 
L 1381 1281 
Q 1381 875 1398 808 
Q 1416 741 1477 697 
Q 1538 653 1625 653 
Q 1747 653 1978 738 
L 2053 56 
Q 1747 -75 1359 -75 
Q 1122 -75 931 4 
Q 741 84 652 211 
Q 563 338 528 553 
Q 500 706 500 1172 
L 500 2619 
L 97 2619 
L 97 3319 
L 500 3319 
L 500 3978 
L 1381 4491 
L 1381 3319 
L 1981 3319 
z
" transform="scale(0.015625)"/>
       </defs>
       <use xlink:href="#Arial-BoldMT-4c"/>
       <use xlink:href="#Arial-BoldMT-6f" transform="translate(61.083984 0)"/>
       <use xlink:href="#Arial-BoldMT-63" transform="translate(122.167969 0)"/>
       <use xlink:href="#Arial-BoldMT-61" transform="translate(177.783203 0)"/>
       <use xlink:href="#Arial-BoldMT-6c" transform="translate(233.398438 0)"/>
       <use xlink:href="#Arial-BoldMT-2d" transform="translate(261.181641 0)"/>
       <use xlink:href="#Arial-BoldMT-42" transform="translate(294.482422 0)"/>
       <use xlink:href="#Arial-BoldMT-61" transform="translate(366.699219 0)"/>
       <use xlink:href="#Arial-BoldMT-74" transform="translate(422.314453 0)"/>
       <use xlink:href="#Arial-BoldMT-63" transform="translate(455.615234 0)"/>
       <use xlink:href="#Arial-BoldMT-68" transform="translate(511.230469 0)"/>
      </g>
     </g>
    </g>
    <g id="xtick_8">
     <g id="line2d_10">
      <path d="M 394.499219 591.800312 
L 394.499219 275.000312 
" clip-path="url(#pf63b53fd14)" style="fill: none; stroke-dasharray: 2.96,1.28; stroke-dashoffset: 0; stroke: #cccccc; stroke-opacity: 0.3; stroke-width: 0.8"/>
     </g>
     <g id="text_17">
      <!-- Balanced -->
      <g style="fill: #262626" transform="translate(370.046562 606.673906) scale(0.11 -0.11)">
       <defs>
        <path id="Arial-BoldMT-6e" d="M 3478 0 
L 2600 0 
L 2600 1694 
Q 2600 2231 2544 2389 
Q 2488 2547 2361 2634 
Q 2234 2722 2056 2722 
Q 1828 2722 1647 2597 
Q 1466 2472 1398 2265 
Q 1331 2059 1331 1503 
L 1331 0 
L 453 0 
L 453 3319 
L 1269 3319 
L 1269 2831 
Q 1703 3394 2363 3394 
Q 2653 3394 2893 3289 
Q 3134 3184 3257 3021 
Q 3381 2859 3429 2653 
Q 3478 2447 3478 2063 
L 3478 0 
z
" transform="scale(0.015625)"/>
        <path id="Arial-BoldMT-64" d="M 3503 0 
L 2688 0 
L 2688 488 
Q 2484 203 2207 64 
Q 1931 -75 1650 -75 
Q 1078 -75 670 386 
Q 263 847 263 1672 
Q 263 2516 659 2955 
Q 1056 3394 1663 3394 
Q 2219 3394 2625 2931 
L 2625 4581 
L 3503 4581 
L 3503 0 
z
M 1159 1731 
Q 1159 1200 1306 963 
Q 1519 619 1900 619 
Q 2203 619 2415 876 
Q 2628 1134 2628 1647 
Q 2628 2219 2422 2470 
Q 2216 2722 1894 2722 
Q 1581 2722 1370 2473 
Q 1159 2225 1159 1731 
z
" transform="scale(0.015625)"/>
       </defs>
       <use xlink:href="#Arial-BoldMT-42"/>
       <use xlink:href="#Arial-BoldMT-61" transform="translate(72.216797 0)"/>
       <use xlink:href="#Arial-BoldMT-6c" transform="translate(127.832031 0)"/>
       <use xlink:href="#Arial-BoldMT-61" transform="translate(155.615234 0)"/>
       <use xlink:href="#Arial-BoldMT-6e" transform="translate(211.230469 0)"/>
       <use xlink:href="#Arial-BoldMT-63" transform="translate(272.314453 0)"/>
       <use xlink:href="#Arial-BoldMT-65" transform="translate(327.929688 0)"/>
       <use xlink:href="#Arial-BoldMT-64" transform="translate(383.544922 0)"/>
      </g>
     </g>
    </g>
    <g id="xtick_9">
     <g id="line2d_11">
      <path d="M 522.652329 591.800312 
L 522.652329 275.000312 
" clip-path="url(#pf63b53fd14)" style="fill: none; stroke-dasharray: 2.96,1.28; stroke-dashoffset: 0; stroke: #cccccc; stroke-opacity: 0.3; stroke-width: 0.8"/>
     </g>
     <g id="text_18">
      <!-- Bulk-Farm -->
      <g style="fill: #262626" transform="translate(495.453969 606.673906) scale(0.11 -0.11)">
       <defs>
        <path id="Arial-BoldMT-75" d="M 2644 0 
L 2644 497 
Q 2463 231 2167 78 
Q 1872 -75 1544 -75 
Q 1209 -75 943 72 
Q 678 219 559 484 
Q 441 750 441 1219 
L 441 3319 
L 1319 3319 
L 1319 1794 
Q 1319 1094 1367 936 
Q 1416 778 1544 686 
Q 1672 594 1869 594 
Q 2094 594 2272 717 
Q 2450 841 2515 1023 
Q 2581 1206 2581 1919 
L 2581 3319 
L 3459 3319 
L 3459 0 
L 2644 0 
z
" transform="scale(0.015625)"/>
        <path id="Arial-BoldMT-6d" d="M 394 3319 
L 1203 3319 
L 1203 2866 
Q 1638 3394 2238 3394 
Q 2556 3394 2790 3262 
Q 3025 3131 3175 2866 
Q 3394 3131 3647 3262 
Q 3900 3394 4188 3394 
Q 4553 3394 4806 3245 
Q 5059 3097 5184 2809 
Q 5275 2597 5275 2122 
L 5275 0 
L 4397 0 
L 4397 1897 
Q 4397 2391 4306 2534 
Q 4184 2722 3931 2722 
Q 3747 2722 3584 2609 
Q 3422 2497 3350 2280 
Q 3278 2063 3278 1594 
L 3278 0 
L 2400 0 
L 2400 1819 
Q 2400 2303 2353 2443 
Q 2306 2584 2207 2653 
Q 2109 2722 1941 2722 
Q 1738 2722 1575 2612 
Q 1413 2503 1342 2297 
Q 1272 2091 1272 1613 
L 1272 0 
L 394 0 
L 394 3319 
z
" transform="scale(0.015625)"/>
       </defs>
       <use xlink:href="#Arial-BoldMT-42"/>
       <use xlink:href="#Arial-BoldMT-75" transform="translate(72.216797 0)"/>
       <use xlink:href="#Arial-BoldMT-6c" transform="translate(133.300781 0)"/>
       <use xlink:href="#Arial-BoldMT-6b" transform="translate(161.083984 0)"/>
       <use xlink:href="#Arial-BoldMT-2d" transform="translate(216.699219 0)"/>
       <use xlink:href="#Arial-BoldMT-46" transform="translate(250 0)"/>
       <use xlink:href="#Arial-BoldMT-61" transform="translate(311.083984 0)"/>
       <use xlink:href="#Arial-BoldMT-72" transform="translate(366.699219 0)"/>
       <use xlink:href="#Arial-BoldMT-6d" transform="translate(405.615234 0)"/>
      </g>
     </g>
    </g>
    <g id="xtick_10">
     <g id="line2d_12">
      <path d="M 650.805439 591.800312 
L 650.805439 275.000312 
" clip-path="url(#pf63b53fd14)" style="fill: none; stroke-dasharray: 2.96,1.28; stroke-dashoffset: 0; stroke: #cccccc; stroke-opacity: 0.3; stroke-width: 0.8"/>
     </g>
     <g id="text_19">
      <!-- JIT-Farm -->
      <g style="fill: #262626" transform="translate(627.881611 606.673906) scale(0.11 -0.11)">
       <defs>
        <path id="Arial-BoldMT-4a" d="M 2119 4581 
L 3041 4581 
L 3041 1681 
Q 3041 1113 2941 806 
Q 2806 406 2453 164 
Q 2100 -78 1522 -78 
Q 844 -78 478 301 
Q 113 681 109 1416 
L 981 1516 
Q 997 1122 1097 959 
Q 1247 713 1553 713 
Q 1863 713 1991 889 
Q 2119 1066 2119 1622 
L 2119 4581 
z
" transform="scale(0.015625)"/>
        <path id="Arial-BoldMT-49" d="M 438 0 
L 438 4581 
L 1363 4581 
L 1363 0 
L 438 0 
z
" transform="scale(0.015625)"/>
        <path id="Arial-BoldMT-54" d="M 1497 0 
L 1497 3806 
L 138 3806 
L 138 4581 
L 3778 4581 
L 3778 3806 
L 2422 3806 
L 2422 0 
L 1497 0 
z
" transform="scale(0.015625)"/>
       </defs>
       <use xlink:href="#Arial-BoldMT-4a"/>
       <use xlink:href="#Arial-BoldMT-49" transform="translate(55.615234 0)"/>
       <use xlink:href="#Arial-BoldMT-54" transform="translate(83.398438 0)"/>
       <use xlink:href="#Arial-BoldMT-2d" transform="translate(138.982422 0)"/>
       <use xlink:href="#Arial-BoldMT-46" transform="translate(172.283203 0)"/>
       <use xlink:href="#Arial-BoldMT-61" transform="translate(233.367188 0)"/>
       <use xlink:href="#Arial-BoldMT-72" transform="translate(288.982422 0)"/>
       <use xlink:href="#Arial-BoldMT-6d" transform="translate(327.898438 0)"/>
      </g>
     </g>
    </g>
   </g>
   <g id="matplotlib.axis_4">
    <g id="ytick_6">
     <g id="line2d_13">
      <path d="M 59.699219 591.800312 
L 729.299219 591.800312 
" clip-path="url(#pf63b53fd14)" style="fill: none; stroke-dasharray: 2.96,1.28; stroke-dashoffset: 0; stroke: #cccccc; stroke-opacity: 0.3; stroke-width: 0.8"/>
     </g>
     <g id="text_20">
      <!-- 0 -->
      <g style="fill: #262626" transform="translate(46.582188 595.737109) scale(0.11 -0.11)">
       <use xlink:href="#ArialMT-30"/>
      </g>
     </g>
    </g>
    <g id="ytick_7">
     <g id="line2d_14">
      <path d="M 59.699219 530.115313 
L 729.299219 530.115313 
" clip-path="url(#pf63b53fd14)" style="fill: none; stroke-dasharray: 2.96,1.28; stroke-dashoffset: 0; stroke: #cccccc; stroke-opacity: 0.3; stroke-width: 0.8"/>
     </g>
     <g id="text_21">
      <!-- 1000 -->
      <g style="fill: #262626" transform="translate(28.231094 534.05211) scale(0.11 -0.11)">
       <use xlink:href="#ArialMT-31"/>
       <use xlink:href="#ArialMT-30" transform="translate(55.615234 0)"/>
       <use xlink:href="#ArialMT-30" transform="translate(111.230469 0)"/>
       <use xlink:href="#ArialMT-30" transform="translate(166.845703 0)"/>
      </g>
     </g>
    </g>
    <g id="ytick_8">
     <g id="line2d_15">
      <path d="M 59.699219 468.430314 
L 729.299219 468.430314 
" clip-path="url(#pf63b53fd14)" style="fill: none; stroke-dasharray: 2.96,1.28; stroke-dashoffset: 0; stroke: #cccccc; stroke-opacity: 0.3; stroke-width: 0.8"/>
     </g>
     <g id="text_22">
      <!-- 2000 -->
      <g style="fill: #262626" transform="translate(28.231094 472.367111) scale(0.11 -0.11)">
       <use xlink:href="#ArialMT-32"/>
       <use xlink:href="#ArialMT-30" transform="translate(55.615234 0)"/>
       <use xlink:href="#ArialMT-30" transform="translate(111.230469 0)"/>
       <use xlink:href="#ArialMT-30" transform="translate(166.845703 0)"/>
      </g>
     </g>
    </g>
    <g id="ytick_9">
     <g id="line2d_16">
      <path d="M 59.699219 406.745314 
L 729.299219 406.745314 
" clip-path="url(#pf63b53fd14)" style="fill: none; stroke-dasharray: 2.96,1.28; stroke-dashoffset: 0; stroke: #cccccc; stroke-opacity: 0.3; stroke-width: 0.8"/>
     </g>
     <g id="text_23">
      <!-- 3000 -->
      <g style="fill: #262626" transform="translate(28.231094 410.682111) scale(0.11 -0.11)">
       <use xlink:href="#ArialMT-33"/>
       <use xlink:href="#ArialMT-30" transform="translate(55.615234 0)"/>
       <use xlink:href="#ArialMT-30" transform="translate(111.230469 0)"/>
       <use xlink:href="#ArialMT-30" transform="translate(166.845703 0)"/>
      </g>
     </g>
    </g>
    <g id="ytick_10">
     <g id="line2d_17">
      <path d="M 59.699219 345.060315 
L 729.299219 345.060315 
" clip-path="url(#pf63b53fd14)" style="fill: none; stroke-dasharray: 2.96,1.28; stroke-dashoffset: 0; stroke: #cccccc; stroke-opacity: 0.3; stroke-width: 0.8"/>
     </g>
     <g id="text_24">
      <!-- 4000 -->
      <g style="fill: #262626" transform="translate(28.231094 348.997112) scale(0.11 -0.11)">
       <use xlink:href="#ArialMT-34"/>
       <use xlink:href="#ArialMT-30" transform="translate(55.615234 0)"/>
       <use xlink:href="#ArialMT-30" transform="translate(111.230469 0)"/>
       <use xlink:href="#ArialMT-30" transform="translate(166.845703 0)"/>
      </g>
     </g>
    </g>
    <g id="ytick_11">
     <g id="line2d_18">
      <path d="M 59.699219 283.375316 
L 729.299219 283.375316 
" clip-path="url(#pf63b53fd14)" style="fill: none; stroke-dasharray: 2.96,1.28; stroke-dashoffset: 0; stroke: #cccccc; stroke-opacity: 0.3; stroke-width: 0.8"/>
     </g>
     <g id="text_25">
      <!-- 5000 -->
      <g style="fill: #262626" transform="translate(28.231094 287.312113) scale(0.11 -0.11)">
       <defs>
        <path id="ArialMT-35" d="M 266 1200 
L 856 1250 
Q 922 819 1161 601 
Q 1400 384 1738 384 
Q 2144 384 2425 690 
Q 2706 997 2706 1503 
Q 2706 1984 2436 2262 
Q 2166 2541 1728 2541 
Q 1456 2541 1237 2417 
Q 1019 2294 894 2097 
L 366 2166 
L 809 4519 
L 3088 4519 
L 3088 3981 
L 1259 3981 
L 1013 2750 
Q 1425 3038 1878 3038 
Q 2478 3038 2890 2622 
Q 3303 2206 3303 1553 
Q 3303 931 2941 478 
Q 2500 -78 1738 -78 
Q 1113 -78 717 272 
Q 322 622 266 1200 
z
" transform="scale(0.015625)"/>
       </defs>
       <use xlink:href="#ArialMT-35"/>
       <use xlink:href="#ArialMT-30" transform="translate(55.615234 0)"/>
       <use xlink:href="#ArialMT-30" transform="translate(111.230469 0)"/>
       <use xlink:href="#ArialMT-30" transform="translate(166.845703 0)"/>
      </g>
     </g>
    </g>
    <g id="text_26">
     <!-- Operational Trade-offs ($) -->
     <g style="fill: #262626" transform="translate(21.915937 496.273047) rotate(-90) scale(0.11 -0.11)">
      <use xlink:href="#ArialMT-4f"/>
      <use xlink:href="#ArialMT-70" transform="translate(77.783203 0)"/>
      <use xlink:href="#ArialMT-65" transform="translate(133.398438 0)"/>
      <use xlink:href="#ArialMT-72" transform="translate(189.013672 0)"/>
      <use xlink:href="#ArialMT-61" transform="translate(222.314453 0)"/>
      <use xlink:href="#ArialMT-74" transform="translate(277.929688 0)"/>
      <use xlink:href="#ArialMT-69" transform="translate(305.712891 0)"/>
      <use xlink:href="#ArialMT-6f" transform="translate(327.929688 0)"/>
      <use xlink:href="#ArialMT-6e" transform="translate(383.544922 0)"/>
      <use xlink:href="#ArialMT-61" transform="translate(439.160156 0)"/>
      <use xlink:href="#ArialMT-6c" transform="translate(494.775391 0)"/>
      <use xlink:href="#ArialMT-20" transform="translate(516.992188 0)"/>
      <use xlink:href="#ArialMT-54" transform="translate(543.025391 0)"/>
      <use xlink:href="#ArialMT-72" transform="translate(600.359375 0)"/>
      <use xlink:href="#ArialMT-61" transform="translate(633.660156 0)"/>
      <use xlink:href="#ArialMT-64" transform="translate(689.275391 0)"/>
      <use xlink:href="#ArialMT-65" transform="translate(744.890625 0)"/>
      <use xlink:href="#ArialMT-2d" transform="translate(800.505859 0)"/>
      <use xlink:href="#ArialMT-6f" transform="translate(833.806641 0)"/>
      <use xlink:href="#ArialMT-66" transform="translate(889.421875 0)"/>
      <use xlink:href="#ArialMT-66" transform="translate(915.455078 0)"/>
      <use xlink:href="#ArialMT-73" transform="translate(943.238281 0)"/>
      <use xlink:href="#ArialMT-20" transform="translate(993.238281 0)"/>
      <use xlink:href="#ArialMT-28" transform="translate(1021.021484 0)"/>
      <use xlink:href="#ArialMT-24" transform="translate(1054.322266 0)"/>
      <use xlink:href="#ArialMT-29" transform="translate(1109.9375 0)"/>
     </g>
    </g>
   </g>
   <g id="patch_17">
    <path d="M 90.135582 591.800312 
L 122.17386 591.800312 
L 122.17386 505.189022 
L 90.135582 505.189022 
z
" clip-path="url(#pf63b53fd14)" style="fill: #ff7f0e; stroke: #ffffff; stroke-linejoin: miter"/>
   </g>
   <g id="patch_18">
    <path d="M 218.288692 591.800312 
L 250.32697 591.800312 
L 250.32697 534.693574 
L 218.288692 534.693574 
z
" clip-path="url(#pf63b53fd14)" style="fill: #ff7f0e; stroke: #ffffff; stroke-linejoin: miter"/>
   </g>
   <g id="patch_19">
    <path d="M 346.441802 591.800312 
L 378.48008 591.800312 
L 378.48008 534.152596 
L 346.441802 534.152596 
z
" clip-path="url(#pf63b53fd14)" style="fill: #ff7f0e; stroke: #ffffff; stroke-linejoin: miter"/>
   </g>
   <g id="patch_20">
    <path d="M 474.594913 591.800312 
L 506.63319 591.800312 
L 506.63319 534.152596 
L 474.594913 534.152596 
z
" clip-path="url(#pf63b53fd14)" style="fill: #ff7f0e; stroke: #ffffff; stroke-linejoin: miter"/>
   </g>
   <g id="patch_21">
    <path d="M 602.748023 591.800312 
L 634.7863 591.800312 
L 634.7863 505.189022 
L 602.748023 505.189022 
z
" clip-path="url(#pf63b53fd14)" style="fill: #ff7f0e; stroke: #ffffff; stroke-linejoin: miter"/>
   </g>
   <g id="patch_22">
    <path d="M 122.17386 591.800312 
L 154.212137 591.800312 
L 154.212137 589.131819 
L 122.17386 589.131819 
z
" clip-path="url(#pf63b53fd14)" style="fill: #2ca02c; stroke: #ffffff; stroke-linejoin: miter"/>
   </g>
   <g id="patch_23">
    <path d="M 250.32697 591.800312 
L 282.365247 591.800312 
L 282.365247 585.70275 
L 250.32697 585.70275 
z
" clip-path="url(#pf63b53fd14)" style="fill: #2ca02c; stroke: #ffffff; stroke-linejoin: miter"/>
   </g>
   <g id="patch_24">
    <path d="M 378.48008 591.800312 
L 410.518358 591.800312 
L 410.518358 587.988796 
L 378.48008 587.988796 
z
" clip-path="url(#pf63b53fd14)" style="fill: #2ca02c; stroke: #ffffff; stroke-linejoin: miter"/>
   </g>
   <g id="patch_25">
    <path d="M 506.63319 591.800312 
L 538.671468 591.800312 
L 538.671468 587.988796 
L 506.63319 587.988796 
z
" clip-path="url(#pf63b53fd14)" style="fill: #2ca02c; stroke: #ffffff; stroke-linejoin: miter"/>
   </g>
   <g id="patch_26">
    <path d="M 634.7863 591.800312 
L 666.824578 591.800312 
L 666.824578 589.131819 
L 634.7863 589.131819 
z
" clip-path="url(#pf63b53fd14)" style="fill: #2ca02c; stroke: #ffffff; stroke-linejoin: miter"/>
   </g>
   <g id="patch_27">
    <path d="M 154.212137 591.800312 
L 186.250415 591.800312 
L 186.250415 290.086027 
L 154.212137 290.086027 
z
" clip-path="url(#pf63b53fd14)" style="fill: #d62728; stroke: #ffffff; stroke-linejoin: miter"/>
   </g>
   <g id="patch_28">
    <path d="M 282.365247 591.800312 
L 314.403525 591.800312 
L 314.403525 290.425294 
L 282.365247 290.425294 
z
" clip-path="url(#pf63b53fd14)" style="fill: #d62728; stroke: #ffffff; stroke-linejoin: miter"/>
   </g>
   <g id="patch_29">
    <path d="M 410.518358 591.800312 
L 442.556635 591.800312 
L 442.556635 290.272315 
L 410.518358 290.272315 
z
" clip-path="url(#pf63b53fd14)" style="fill: #d62728; stroke: #ffffff; stroke-linejoin: miter"/>
   </g>
   <g id="patch_30">
    <path d="M 538.671468 591.800312 
L 570.709745 591.800312 
L 570.709745 290.272315 
L 538.671468 290.272315 
z
" clip-path="url(#pf63b53fd14)" style="fill: #d62728; stroke: #ffffff; stroke-linejoin: miter"/>
   </g>
   <g id="patch_31">
    <path d="M 666.824578 591.800312 
L 698.862855 591.800312 
L 698.862855 290.086027 
L 666.824578 290.086027 
z
" clip-path="url(#pf63b53fd14)" style="fill: #d62728; stroke: #ffffff; stroke-linejoin: miter"/>
   </g>
   <g id="patch_32">
    <path d="M 59.699219 591.800312 
L 59.699219 275.000312 
" style="fill: none; stroke: #cccccc; stroke-width: 0.8; stroke-linejoin: miter; stroke-linecap: square"/>
   </g>
   <g id="patch_33">
    <path d="M 729.299219 591.800312 
L 729.299219 275.000312 
" style="fill: none; stroke: #cccccc; stroke-width: 0.8; stroke-linejoin: miter; stroke-linecap: square"/>
   </g>
   <g id="patch_34">
    <path d="M 59.699219 591.800312 
L 729.299219 591.800312 
" style="fill: none; stroke: #cccccc; stroke-width: 0.8; stroke-linejoin: miter; stroke-linecap: square"/>
   </g>
   <g id="patch_35">
    <path d="M 59.699219 275.000312 
L 729.299219 275.000312 
" style="fill: none; stroke: #cccccc; stroke-width: 0.8; stroke-linejoin: miter; stroke-linecap: square"/>
   </g>
   <g id="text_27">
    <!-- WINNER -->
    <g style="fill: #daa520" transform="translate(244.04189 290.840312) scale(0.11 -0.11)">
     <defs>
      <path id="Arial-BoldMT-57" d="M 1116 0 
L 22 4581 
L 969 4581 
L 1659 1434 
L 2497 4581 
L 3597 4581 
L 4400 1381 
L 5103 4581 
L 6034 4581 
L 4922 0 
L 3941 0 
L 3028 3425 
L 2119 0 
L 1116 0 
z
" transform="scale(0.015625)"/>
      <path id="Arial-BoldMT-4e" d="M 475 0 
L 475 4581 
L 1375 4581 
L 3250 1522 
L 3250 4581 
L 4109 4581 
L 4109 0 
L 3181 0 
L 1334 2988 
L 1334 0 
L 475 0 
z
" transform="scale(0.015625)"/>
      <path id="Arial-BoldMT-45" d="M 466 0 
L 466 4581 
L 3863 4581 
L 3863 3806 
L 1391 3806 
L 1391 2791 
L 3691 2791 
L 3691 2019 
L 1391 2019 
L 1391 772 
L 3950 772 
L 3950 0 
L 466 0 
z
" transform="scale(0.015625)"/>
      <path id="Arial-BoldMT-52" d="M 469 0 
L 469 4581 
L 2416 4581 
Q 3150 4581 3483 4457 
Q 3816 4334 4016 4018 
Q 4216 3703 4216 3297 
Q 4216 2781 3912 2445 
Q 3609 2109 3006 2022 
Q 3306 1847 3501 1637 
Q 3697 1428 4028 894 
L 4588 0 
L 3481 0 
L 2813 997 
Q 2456 1531 2325 1670 
Q 2194 1809 2047 1861 
Q 1900 1913 1581 1913 
L 1394 1913 
L 1394 0 
L 469 0 
z
M 1394 2644 
L 2078 2644 
Q 2744 2644 2909 2700 
Q 3075 2756 3169 2893 
Q 3263 3031 3263 3238 
Q 3263 3469 3139 3611 
Q 3016 3753 2791 3791 
Q 2678 3806 2116 3806 
L 1394 3806 
L 1394 2644 
z
" transform="scale(0.015625)"/>
     </defs>
     <use xlink:href="#Arial-BoldMT-57"/>
     <use xlink:href="#Arial-BoldMT-49" transform="translate(94.384766 0)"/>
     <use xlink:href="#Arial-BoldMT-4e" transform="translate(122.167969 0)"/>
     <use xlink:href="#Arial-BoldMT-4e" transform="translate(194.384766 0)"/>
     <use xlink:href="#Arial-BoldMT-45" transform="translate(266.601562 0)"/>
     <use xlink:href="#Arial-BoldMT-52" transform="translate(333.300781 0)"/>
    </g>
   </g>
   <g id="legend_2">
    <g id="patch_36">
     <path d="M 67.399219 346.567344 
L 194.084844 346.567344 
Q 196.284844 346.567344 196.284844 344.367344 
L 196.284844 282.700312 
Q 196.284844 280.500312 194.084844 280.500312 
L 67.399219 280.500312 
Q 65.199219 280.500312 65.199219 282.700312 
L 65.199219 344.367344 
Q 65.199219 346.567344 67.399219 346.567344 
z
" style="fill: #ffffff; opacity: 0.8; stroke: #cccccc; stroke-linejoin: miter"/>
    </g>
    <g id="text_28">
     <!-- Operational Components -->
     <g style="fill: #262626" transform="translate(69.599219 292.914844) scale(0.11 -0.11)">
      <use xlink:href="#ArialMT-4f"/>
      <use xlink:href="#ArialMT-70" transform="translate(77.783203 0)"/>
      <use xlink:href="#ArialMT-65" transform="translate(133.398438 0)"/>
      <use xlink:href="#ArialMT-72" transform="translate(189.013672 0)"/>
      <use xlink:href="#ArialMT-61" transform="translate(222.314453 0)"/>
      <use xlink:href="#ArialMT-74" transform="translate(277.929688 0)"/>
      <use xlink:href="#ArialMT-69" transform="translate(305.712891 0)"/>
      <use xlink:href="#ArialMT-6f" transform="translate(327.929688 0)"/>
      <use xlink:href="#ArialMT-6e" transform="translate(383.544922 0)"/>
      <use xlink:href="#ArialMT-61" transform="translate(439.160156 0)"/>
      <use xlink:href="#ArialMT-6c" transform="translate(494.775391 0)"/>
      <use xlink:href="#ArialMT-20" transform="translate(516.992188 0)"/>
      <use xlink:href="#ArialMT-43" transform="translate(544.775391 0)"/>
      <use xlink:href="#ArialMT-6f" transform="translate(616.992188 0)"/>
      <use xlink:href="#ArialMT-6d" transform="translate(672.607422 0)"/>
      <use xlink:href="#ArialMT-70" transform="translate(755.908203 0)"/>
      <use xlink:href="#ArialMT-6f" transform="translate(811.523438 0)"/>
      <use xlink:href="#ArialMT-6e" transform="translate(867.138672 0)"/>
      <use xlink:href="#ArialMT-65" transform="translate(922.753906 0)"/>
      <use xlink:href="#ArialMT-6e" transform="translate(978.369141 0)"/>
      <use xlink:href="#ArialMT-74" transform="translate(1033.984375 0)"/>
      <use xlink:href="#ArialMT-73" transform="translate(1061.767578 0)"/>
     </g>
    </g>
    <g id="patch_37">
     <path d="M 69.795156 308.474687 
L 91.795156 308.474687 
L 91.795156 300.774687 
L 69.795156 300.774687 
z
" style="fill: #ff7f0e; stroke: #ffffff; stroke-linejoin: miter"/>
    </g>
    <g id="text_29">
     <!-- Logistics -->
     <g style="fill: #262626" transform="translate(100.595156 308.474687) scale(0.11 -0.11)">
      <defs>
       <path id="ArialMT-4c" d="M 469 0 
L 469 4581 
L 1075 4581 
L 1075 541 
L 3331 541 
L 3331 0 
L 469 0 
z
" transform="scale(0.015625)"/>
      </defs>
      <use xlink:href="#ArialMT-4c"/>
      <use xlink:href="#ArialMT-6f" transform="translate(55.615234 0)"/>
      <use xlink:href="#ArialMT-67" transform="translate(111.230469 0)"/>
      <use xlink:href="#ArialMT-69" transform="translate(166.845703 0)"/>
      <use xlink:href="#ArialMT-73" transform="translate(189.0625 0)"/>
      <use xlink:href="#ArialMT-74" transform="translate(239.0625 0)"/>
      <use xlink:href="#ArialMT-69" transform="translate(266.845703 0)"/>
      <use xlink:href="#ArialMT-63" transform="translate(289.0625 0)"/>
      <use xlink:href="#ArialMT-73" transform="translate(339.0625 0)"/>
     </g>
    </g>
    <g id="patch_38">
     <path d="M 69.795156 324.163437 
L 91.795156 324.163437 
L 91.795156 316.463437 
L 69.795156 316.463437 
z
" style="fill: #2ca02c; stroke: #ffffff; stroke-linejoin: miter"/>
    </g>
    <g id="text_30">
     <!-- Holding -->
     <g style="fill: #262626" transform="translate(100.595156 324.163437) scale(0.11 -0.11)">
      <defs>
       <path id="ArialMT-48" d="M 513 0 
L 513 4581 
L 1119 4581 
L 1119 2700 
L 3500 2700 
L 3500 4581 
L 4106 4581 
L 4106 0 
L 3500 0 
L 3500 2159 
L 1119 2159 
L 1119 0 
L 513 0 
z
" transform="scale(0.015625)"/>
      </defs>
      <use xlink:href="#ArialMT-48"/>
      <use xlink:href="#ArialMT-6f" transform="translate(72.216797 0)"/>
      <use xlink:href="#ArialMT-6c" transform="translate(127.832031 0)"/>
      <use xlink:href="#ArialMT-64" transform="translate(150.048828 0)"/>
      <use xlink:href="#ArialMT-69" transform="translate(205.664062 0)"/>
      <use xlink:href="#ArialMT-6e" transform="translate(227.880859 0)"/>
      <use xlink:href="#ArialMT-67" transform="translate(283.496094 0)"/>
     </g>
    </g>
    <g id="patch_39">
     <path d="M 69.795156 339.852187 
L 91.795156 339.852187 
L 91.795156 332.152187 
L 69.795156 332.152187 
z
" style="fill: #d62728; stroke: #ffffff; stroke-linejoin: miter"/>
    </g>
    <g id="text_31">
     <!-- Freshness Penalty -->
     <g style="fill: #262626" transform="translate(100.595156 339.852187) scale(0.11 -0.11)">
      <defs>
       <path id="ArialMT-46" d="M 525 0 
L 525 4581 
L 3616 4581 
L 3616 4041 
L 1131 4041 
L 1131 2622 
L 3281 2622 
L 3281 2081 
L 1131 2081 
L 1131 0 
L 525 0 
z
" transform="scale(0.015625)"/>
       <path id="ArialMT-68" d="M 422 0 
L 422 4581 
L 984 4581 
L 984 2938 
Q 1378 3394 1978 3394 
Q 2347 3394 2619 3248 
Q 2891 3103 3008 2847 
Q 3125 2591 3125 2103 
L 3125 0 
L 2563 0 
L 2563 2103 
Q 2563 2525 2380 2717 
Q 2197 2909 1863 2909 
Q 1613 2909 1392 2779 
Q 1172 2650 1078 2428 
Q 984 2206 984 1816 
L 984 0 
L 422 0 
z
" transform="scale(0.015625)"/>
      </defs>
      <use xlink:href="#ArialMT-46"/>
      <use xlink:href="#ArialMT-72" transform="translate(61.083984 0)"/>
      <use xlink:href="#ArialMT-65" transform="translate(94.384766 0)"/>
      <use xlink:href="#ArialMT-73" transform="translate(150 0)"/>
      <use xlink:href="#ArialMT-68" transform="translate(200 0)"/>
      <use xlink:href="#ArialMT-6e" transform="translate(255.615234 0)"/>
      <use xlink:href="#ArialMT-65" transform="translate(311.230469 0)"/>
      <use xlink:href="#ArialMT-73" transform="translate(366.845703 0)"/>
      <use xlink:href="#ArialMT-73" transform="translate(416.845703 0)"/>
      <use xlink:href="#ArialMT-20" transform="translate(466.845703 0)"/>
      <use xlink:href="#ArialMT-50" transform="translate(494.628906 0)"/>
      <use xlink:href="#ArialMT-65" transform="translate(561.328125 0)"/>
      <use xlink:href="#ArialMT-6e" transform="translate(616.943359 0)"/>
      <use xlink:href="#ArialMT-61" transform="translate(672.558594 0)"/>
      <use xlink:href="#ArialMT-6c" transform="translate(728.173828 0)"/>
      <use xlink:href="#ArialMT-74" transform="translate(750.390625 0)"/>
      <use xlink:href="#ArialMT-79" transform="translate(778.173828 0)"/>
     </g>
    </g>
   </g>
  </g>
 </g>
 <defs>
  <clipPath id="p01bae715f6">
   <rect x="59.699219" y="37.400312" width="669.6" height="211.2"/>
  </clipPath>
  <clipPath id="pf63b53fd14">
   <rect x="59.699219" y="275.000312" width="669.6" height="316.8"/>
  </clipPath>
 </defs>
</svg>
